if (_typeface_js && _typeface_js.loadFace) _typeface_js.loadFace({"glyphs":{"S":{"x_min":46,"x_max":1524,"ha":1337,"o":"m 1524 789 q 1470 675 1524 722 q 1342 628 1417 628 q 1214 675 1267 628 q 1162 789 1162 722 q 1167 830 1162 805 q 1128 833 1136 833 q 1026 746 1026 833 q 1086 549 1026 702 q 1147 309 1147 396 q 941 31 1147 124 q 582 -37 788 -37 q 250 15 395 -37 q 46 240 46 88 q 422 461 46 461 l 680 461 l 730 352 l 528 352 q 396 325 452 352 q 323 223 323 291 q 424 104 323 147 q 590 71 501 71 q 778 120 703 71 q 866 283 866 177 q 810 493 866 356 q 755 706 755 630 q 1176 954 755 954 l 1344 954 q 1467 907 1413 954 q 1524 789 1524 857 "},"¦":{"x_min":82,"x_max":169,"ha":248,"o":"m 169 551 l 82 551 l 82 1023 l 169 1023 l 169 551 m 169 -141 l 82 -141 l 82 331 l 169 331 l 169 -141 "},"/":{"x_min":115,"x_max":784,"ha":678,"o":"m 784 954 l 260 0 l 115 0 l 638 954 l 784 954 "},"y":{"x_min":-5.015625,"x_max":903,"ha":900,"o":"m 903 109 q 745 0 861 0 l 572 0 q 451 -237 514 -160 q 232 -345 363 -345 q 104 -295 149 -345 q 66 -183 66 -251 q 89 -78 66 -129 q 150 0 112 -27 l 99 0 q 24 27 54 0 q -5 96 -5 54 q 1 134 -5 115 l 108 461 l 352 461 l 236 109 l 361 109 l 470 461 l 712 461 l 603 109 l 903 109 m 323 -18 q 247 -68 282 -18 q 213 -169 213 -119 q 251 -241 213 -214 l 323 -18 "},"≈":{"x_min":115,"x_max":586,"ha":701,"o":"m 586 545 q 530 487 586 487 q 459 500 496 487 l 204 598 l 204 491 l 115 491 l 115 632 q 170 691 115 691 q 241 676 205 691 l 497 580 l 497 687 l 586 687 l 586 545 m 586 277 q 530 219 586 219 q 459 232 496 219 l 204 330 l 204 223 l 115 223 l 115 364 q 170 423 115 423 q 241 408 205 423 l 497 312 l 497 419 l 586 419 l 586 277 "},"Ž":{"x_min":-17.46875,"x_max":1322,"ha":1083,"o":"m 1322 461 q 1195 352 1289 352 l 777 352 q 779 322 779 342 q 578 -33 779 125 q 187 -183 390 -183 q 34 -129 91 -183 q -17 17 -22 -75 q 153 323 -4 198 q 477 456 292 432 q 363 587 442 526 l 737 783 l 228 783 l 330 954 l 1036 954 q 1016 829 1036 874 q 927 740 992 774 l 655 592 q 752 461 727 535 l 1322 461 m 535 328 q 524 352 533 338 q 391 297 465 345 q 282 200 322 252 q 178 -17 178 66 q 230 -77 178 -77 q 433 47 328 -77 q 538 294 538 171 q 535 328 538 312 m 935 1186 l 782 1014 l 633 1014 l 546 1186 l 662 1186 l 719 1104 l 824 1186 l 935 1186 "},"Á":{"x_min":-49,"x_max":1881,"ha":1531,"o":"m 1881 461 q 1715 352 1846 352 l 1312 352 l 1185 0 l 942 0 l 1069 352 l 861 352 q 193 -60 519 -60 q 33 -24 98 -60 q -49 106 -49 20 q 12 251 -49 180 q 309 418 110 364 q 654 461 465 461 l 786 461 l 1195 954 l 1524 954 l 1349 461 l 1881 461 m 1247 841 l 951 461 l 1102 461 l 1247 841 m 695 352 q 337 278 440 352 q 253 149 253 217 q 314 91 253 91 q 524 185 398 91 q 695 352 635 267 m 1603 1222 l 1394 1012 l 1293 1012 l 1416 1222 l 1603 1222 "},"g":{"x_min":-17,"x_max":880,"ha":872,"o":"m 880 109 q 673 0 848 0 l 549 0 q 431 -237 490 -164 q 213 -345 345 -345 q 94 -302 138 -345 q 50 -184 50 -260 q 136 5 50 -37 q 31 64 72 19 q -17 185 -17 114 q -8 243 -17 213 q 115 410 19 354 q 318 461 200 461 l 695 461 l 571 109 l 880 109 m 416 352 l 289 352 l 234 180 q 230 152 230 164 q 307 94 230 94 q 321 95 312 94 q 336 96 331 96 l 416 352 m 307 -18 q 229 -68 265 -18 q 193 -169 193 -119 q 231 -241 193 -214 l 307 -18 "},"²":{"x_min":74,"x_max":725,"ha":757,"o":"m 725 814 q 605 604 725 694 q 390 503 518 539 l 664 503 l 612 352 l 74 352 l 110 477 q 343 600 220 514 q 497 792 497 708 q 430 878 497 878 q 415 877 422 878 q 417 858 417 865 q 370 780 417 810 q 280 754 330 754 q 190 780 230 754 q 145 858 145 811 q 250 958 145 927 q 415 979 319 979 q 725 814 725 979 "},"–":{"x_min":21,"x_max":911,"ha":1050,"o":"m 911 461 l 851 289 l 21 289 l 80 461 l 911 461 "},"ë":{"x_min":-24,"x_max":852,"ha":848,"o":"m 852 109 q 786 26 837 56 q 683 0 741 0 l 305 0 q -24 198 -24 0 q 88 398 -24 326 q 319 461 185 461 l 417 461 q 569 434 503 461 q 660 327 655 399 q 590 207 663 255 l 366 207 l 439 352 l 295 352 l 239 189 q 235 163 235 175 q 323 109 235 109 l 852 109 m 624 633 q 594 569 624 594 q 525 545 565 545 q 457 571 487 545 q 427 635 427 597 q 457 699 427 673 q 525 725 487 725 q 594 699 565 725 q 624 633 624 672 m 345 633 q 315 569 345 594 q 246 545 285 545 q 177 571 207 545 q 148 635 148 597 q 177 699 148 673 q 246 725 207 725 q 314 699 286 725 q 345 633 345 672 "},"ƒ":{"x_min":-185,"x_max":1154,"ha":996,"o":"m 1154 789 q 1102 674 1154 722 q 977 627 1050 627 q 852 674 904 627 q 801 789 801 722 q 807 835 801 812 q 790 840 802 840 q 713 800 731 840 l 610 461 l 810 461 q 672 352 782 352 l 576 352 l 487 65 q 236 -173 428 -99 q 118 -196 183 -192 q -9 -197 112 -197 q -135 -149 -86 -197 q -185 -32 -185 -102 q -133 81 -185 34 q -8 129 -81 129 q 116 81 64 129 q 168 -32 168 34 q 161 -79 168 -55 q 255 101 182 -92 q 332 352 294 226 l 177 352 l 219 461 l 365 461 l 459 756 q 831 954 530 951 l 978 955 q 1105 906 1054 955 q 1154 789 1154 858 "},"Î":{"x_min":-1,"x_max":1066,"ha":999,"o":"m 1021 954 l 786 201 q 505 0 716 0 l 31 0 q 83 108 61 76 q 177 165 123 165 q 194 163 185 165 l 515 111 l 725 783 l 346 783 q 195 732 262 783 q 122 592 122 676 q 147 526 122 534 q 213 627 159 589 q 328 664 263 664 q 450 620 398 664 q 506 501 506 574 q 441 374 506 419 q 303 335 386 335 q 92 396 176 335 q -1 584 -1 464 q 137 865 -1 764 q 441 954 259 954 l 1021 954 m 1066 1014 l 949 1014 l 892 1096 l 786 1014 l 677 1014 l 829 1186 l 978 1186 l 1066 1014 "},"e":{"x_min":-24,"x_max":852,"ha":848,"o":"m 852 109 q 786 26 837 56 q 683 0 741 0 l 305 0 q -24 198 -24 0 q 88 398 -24 326 q 319 461 185 461 l 417 461 q 569 434 503 461 q 660 327 655 399 q 590 207 663 255 l 366 207 l 439 352 l 295 352 l 239 189 q 235 163 235 175 q 323 109 235 109 l 852 109 "},"Ã":{"x_min":-49,"x_max":1881,"ha":1531,"o":"m 1881 461 q 1715 352 1846 352 l 1312 352 l 1185 0 l 942 0 l 1069 352 l 861 352 q 193 -60 519 -60 q 33 -24 98 -60 q -49 106 -49 20 q 12 251 -49 180 q 309 418 110 364 q 654 461 465 461 l 786 461 l 1195 954 l 1524 954 l 1349 461 l 1881 461 m 1247 841 l 951 461 l 1102 461 l 1247 841 m 695 352 q 337 278 440 352 q 253 149 253 217 q 314 91 253 91 q 524 185 398 91 q 695 352 635 267 m 1622 1192 l 1579 1081 q 1453 1012 1520 1012 q 1349 1054 1400 1012 q 1244 1096 1298 1096 q 1116 1032 1178 1096 l 1167 1138 q 1291 1205 1218 1205 q 1408 1159 1345 1205 q 1499 1122 1460 1122 q 1622 1192 1543 1122 "},"J":{"x_min":-1,"x_max":1050,"ha":997,"o":"m 1050 954 l 815 284 q 550 -94 728 38 q 235 -208 399 -208 q 70 -162 134 -208 q 4 -38 4 -115 q 56 76 4 28 q 184 124 109 124 q 313 76 260 124 q 366 -38 366 28 q 363 -66 366 -49 q 476 49 428 -38 q 541 205 503 98 l 745 783 l 355 783 q 197 732 267 783 q 122 592 122 676 q 162 526 122 534 q 228 627 174 589 q 343 664 278 664 q 465 620 413 664 q 521 501 521 574 q 454 374 521 419 q 312 335 397 335 q 95 396 182 335 q -1 584 -1 464 q 141 865 -1 764 q 453 954 266 954 l 1050 954 "},"»":{"x_min":61,"x_max":686,"ha":746,"o":"m 686 323 l 519 103 l 354 103 l 518 323 l 355 545 l 520 545 l 686 323 m 393 323 l 226 103 l 61 103 l 225 323 l 62 545 l 227 545 l 393 323 "},"∆":{"x_min":31,"x_max":526,"ha":555,"o":"m 526 0 l 31 0 l 31 83 l 232 1064 l 325 1064 q 431 546 332 1024 q 526 80 526 81 l 526 0 m 432 90 l 277 894 l 123 90 l 432 90 "},"‐":{"x_min":32,"x_max":549,"ha":707,"o":"m 549 395 l 489 223 l 32 223 l 91 395 l 549 395 "},"©":{"x_min":0,"x_max":616,"ha":621,"o":"m 616 553 q 525 351 616 434 q 308 268 435 268 q 90 351 180 268 q 0 551 0 434 q 90 753 0 669 q 308 838 180 837 q 525 754 435 838 q 616 553 616 671 m 556 551 q 483 711 556 645 q 309 778 410 778 q 134 711 207 778 q 62 550 62 645 q 134 390 62 456 q 309 324 207 324 q 483 390 411 324 q 556 551 556 457 m 470 622 q 448 571 470 592 q 395 550 426 550 q 340 572 361 550 q 320 628 319 594 l 293 628 l 266 533 q 262 506 262 518 q 328 460 262 460 l 469 460 q 374 406 456 406 l 284 406 q 179 437 225 406 q 130 523 130 471 q 131 539 130 531 q 197 658 142 616 q 313 696 245 696 l 400 696 q 449 673 429 696 q 470 622 470 651 "},"˘":{"x_min":434,"x_max":801,"ha":695,"o":"m 801 698 q 728 575 789 624 q 587 526 668 526 q 475 564 517 526 q 434 664 434 603 q 437 698 434 681 l 547 698 q 544 674 544 685 q 611 618 544 618 q 705 698 694 618 l 801 698 "},"≥":{"x_min":65,"x_max":410,"ha":473,"o":"m 410 439 l 65 205 l 65 299 l 317 464 l 65 631 l 65 725 l 69 725 l 410 488 l 410 439 m 409 98 l 65 98 l 65 179 l 409 179 l 409 98 "},"ò":{"x_min":-31,"x_max":1154,"ha":807,"o":"m 1154 461 q 991 352 1126 352 l 566 352 q 603 297 589 337 q 615 228 617 257 q 515 51 605 115 q 291 -11 429 -10 q 45 52 131 -12 q -31 201 -31 109 q -27 238 -31 220 q 74 399 -9 340 q 312 461 163 461 l 1154 461 m 415 352 l 260 352 l 198 178 q 194 153 194 165 q 302 95 194 95 q 325 95 315 95 l 415 352 m 458 543 l 381 543 l 217 753 l 399 753 l 458 543 "},"^":{"x_min":182,"x_max":777,"ha":973,"o":"m 777 247 l 636 247 l 540 492 l 336 247 l 182 247 l 500 636 l 631 636 l 777 247 "},"«":{"x_min":60,"x_max":685,"ha":746,"o":"m 685 103 l 519 103 l 353 323 l 518 545 l 684 545 l 521 323 l 685 103 m 392 103 l 226 103 l 60 323 l 225 545 l 390 545 l 228 323 l 392 103 "},"D":{"x_min":5,"x_max":1183,"ha":1207,"o":"m 1183 637 q 1096 374 1183 513 q 765 92 982 192 q 335 0 565 0 l 112 0 l 328 696 l 570 696 l 387 109 q 655 190 523 109 q 850 393 788 272 q 905 570 905 499 q 839 738 905 687 q 660 783 781 783 l 5 783 l 109 954 l 765 954 q 1049 882 936 954 q 1183 637 1183 797 "},"∙":{"x_min":60,"x_max":281,"ha":335,"o":"m 281 319 q 248 240 281 273 q 171 208 215 208 q 92 240 125 208 q 60 319 60 273 q 92 396 60 363 q 169 429 125 429 q 248 396 215 429 q 281 319 281 363 "},"ł":{"x_min":-27,"x_max":587,"ha":520,"o":"m 525 109 q 447 20 508 49 q 355 0 404 0 l 94 0 q -5 68 -5 0 q 1 108 -5 86 l 222 818 l 459 818 l 237 109 l 525 109 m 587 564 l 559 453 l -27 392 l -3 503 l 587 564 "},"ÿ":{"x_min":-5.015625,"x_max":903,"ha":900,"o":"m 903 109 q 745 0 861 0 l 572 0 q 451 -237 514 -160 q 232 -345 363 -345 q 104 -295 149 -345 q 66 -183 66 -251 q 89 -78 66 -129 q 150 0 112 -27 l 99 0 q 24 27 54 0 q -5 96 -5 54 q 1 134 -5 115 l 108 461 l 352 461 l 236 109 l 361 109 l 470 461 l 712 461 l 603 109 l 903 109 m 323 -18 q 247 -68 282 -18 q 213 -169 213 -119 q 251 -241 213 -214 l 323 -18 m 692 633 q 662 569 692 594 q 593 545 633 545 q 525 571 555 545 q 495 635 495 597 q 525 699 495 673 q 593 725 555 725 q 662 699 633 725 q 692 633 692 672 m 413 633 q 383 569 413 594 q 314 545 353 545 q 245 571 275 545 q 216 635 216 597 q 245 699 216 673 q 314 725 275 725 q 382 699 354 725 q 413 633 413 672 "},"Ł":{"x_min":3,"x_max":1489,"ha":1430,"o":"m 1489 804 q 1432 687 1489 734 q 1308 642 1379 642 q 1176 694 1229 642 q 1130 826 1123 746 q 1064 809 1108 828 q 946 486 967 765 q 625 109 923 211 l 1429 109 q 1247 0 1399 0 l 3 0 q 149 165 62 165 q 283 135 187 165 q 422 105 379 105 q 620 316 543 105 l 697 629 q 1290 970 816 970 q 1426 927 1370 970 q 1489 804 1489 881 m 1164 579 q 1088 475 1136 509 q 959 426 1045 445 q 476 319 957 424 l 514 437 l 1164 579 "},"í":{"x_min":-8,"x_max":517,"ha":517,"o":"m 517 109 q 443 20 499 49 q 357 0 403 0 l 89 0 q -8 81 -8 0 q 1 130 -8 104 l 104 461 l 347 461 l 238 109 l 517 109 m 487 754 l 278 544 l 177 544 l 300 754 l 487 754 "},"ˆ":{"x_min":335,"x_max":724,"ha":695,"o":"m 724 549 l 607 549 l 550 631 l 444 549 l 335 549 l 487 721 l 636 721 l 724 549 "},"w":{"x_min":-9.828125,"x_max":1069.890625,"ha":1150,"o":"m 1069 461 l 963 109 q 795 0 913 0 l 454 0 q 354 60 364 0 q 211 0 304 0 l 90 0 q -9 71 -9 0 q -2 109 -9 88 l 111 461 l 356 461 l 238 109 l 357 108 l 467 461 l 707 461 l 600 109 l 719 108 l 829 461 l 1069 461 "},"$":{"x_min":85,"x_max":1135,"ha":1078,"o":"m 1135 774 q 1077 649 1135 701 q 936 598 1019 598 q 832 624 880 598 l 776 497 l 827 421 q 892 234 892 322 q 803 62 892 128 q 604 0 720 0 l 556 -134 l 484 -134 l 532 0 l 378 0 l 331 -129 l 259 -129 l 306 1 q 284 0 299 0 q 143 51 201 0 q 85 175 85 103 q 143 300 85 249 q 284 352 201 352 q 415 306 361 352 l 472 460 q 340 737 340 601 q 350 809 340 774 q 647 954 391 954 l 654 954 l 686 1046 l 744 1046 l 712 954 l 878 954 l 910 1042 l 968 1042 l 936 951 q 1076 899 1018 951 q 1135 774 1135 847 m 775 672 q 738 775 738 717 q 741 799 738 777 q 744 823 744 820 q 701 829 720 829 q 623 750 623 829 q 655 649 623 691 l 732 552 l 775 672 m 566 346 l 520 407 l 463 252 q 482 175 482 210 q 467 110 482 145 q 509 105 489 105 q 587 136 558 105 q 615 215 615 166 q 566 346 615 281 "},"∫":{"x_min":-22,"x_max":324,"ha":330,"o":"m 324 982 l 196 982 l 196 -196 q 178 -246 196 -225 q 122 -271 157 -271 l -22 -272 l -22 -193 l 106 -193 l 106 984 q 182 1061 106 1061 l 324 1061 l 324 982 "},"\\":{"x_min":-94,"x_max":481,"ha":386,"o":"m 481 -14 l 336 -14 l -94 1039 l 50 1039 l 481 -14 "},"Ì":{"x_min":-1,"x_max":1021,"ha":999,"o":"m 1021 954 l 786 201 q 505 0 716 0 l 31 0 q 83 108 61 76 q 177 165 123 165 q 194 163 185 165 l 515 111 l 725 783 l 346 783 q 195 732 262 783 q 122 592 122 676 q 147 526 122 534 q 213 627 159 589 q 328 664 263 664 q 450 620 398 664 q 506 501 506 574 q 441 374 506 419 q 303 335 386 335 q 92 396 176 335 q -1 584 -1 464 q 137 865 -1 764 q 441 954 259 954 l 1021 954 m 973 1012 l 896 1012 l 732 1222 l 914 1222 l 973 1012 "},"µ":{"x_min":74,"x_max":459,"ha":532,"o":"m 459 0 l 369 0 l 369 19 q 244 -1 323 -1 q 163 26 181 -1 l 163 -250 l 74 -250 l 74 660 l 163 660 l 163 171 q 256 77 163 77 q 369 88 320 77 l 369 660 l 459 660 l 459 0 "},"Ç":{"x_min":59.984375,"x_max":1081,"ha":1049,"o":"m 1081 788 q 1024 668 1081 717 q 899 622 971 622 q 772 668 826 622 q 716 788 716 717 q 721 829 716 812 q 457 678 576 827 q 346 388 346 537 q 711 109 346 109 l 1053 109 q 888 0 1031 0 l 637 0 q 258 67 403 0 q 60 372 57 161 q 132 608 61 490 q 408 863 229 769 q 775 954 581 954 l 911 954 q 1029 903 977 954 q 1081 788 1081 853 m 716 -139 q 678 -235 716 -199 q 546 -278 633 -278 l 312 -278 q 478 -169 334 -169 l 588 -169 q 603 -161 601 -163 q 610 -149 609 -158 q 599 -118 612 -130 q 567 -108 587 -107 q 492 -108 567 -108 l 515 -48 l 590 11 l 652 11 l 585 -38 q 716 -139 716 -38 "},"’":{"x_min":14,"x_max":316,"ha":329,"o":"m 316 954 l 129 662 l 14 662 l 117 954 l 316 954 "},"-":{"x_min":32,"x_max":549,"ha":707,"o":"m 549 395 l 489 223 l 32 223 l 91 395 l 549 395 "},"Q":{"x_min":0,"x_max":1121,"ha":1118,"o":"m 1121 109 q 954 0 1093 0 l 0 0 q 149 166 65 166 q 172 163 160 166 l 398 109 q 595 203 485 109 q 752 398 699 291 q 809 610 809 514 q 734 785 809 720 q 570 844 668 844 q 408 797 475 844 q 334 655 334 744 q 472 715 388 715 q 600 667 547 715 q 653 552 653 619 q 596 433 653 481 q 471 389 543 389 q 271 475 346 389 q 204 668 204 553 q 309 889 204 798 q 631 993 428 993 q 974 884 854 993 q 1080 631 1080 787 q 954 311 1080 460 q 613 109 821 153 l 1121 109 "},"M":{"x_min":-11,"x_max":1569,"ha":1568,"o":"m 1569 109 q 1380 0 1540 0 l 1136 0 q 1022 65 1022 0 q 1036 126 1022 88 l 1150 419 l 791 75 q 684 -10 742 -10 q 661 -7 673 -10 q 591 69 591 0 q 603 126 591 95 l 737 556 l 331 71 q 218 0 293 0 l 91 0 l 334 783 l -11 783 l 86 954 l 516 954 q 606 890 606 954 q 593 832 606 866 l 462 406 l 759 741 q 835 817 808 799 q 948 846 879 846 q 989 831 968 846 q 1024 765 1024 809 q 1009 704 1024 738 l 901 355 l 1187 607 q 1260 677 1242 665 q 1350 696 1291 696 q 1399 678 1373 696 q 1440 600 1440 651 q 1426 536 1440 571 l 1263 109 l 1569 109 "},"C":{"x_min":59.984375,"x_max":1081,"ha":1049,"o":"m 1081 788 q 1024 668 1081 717 q 899 622 971 622 q 772 668 826 622 q 716 788 716 717 q 721 829 716 812 q 457 678 576 827 q 346 388 346 537 q 711 109 346 109 l 1053 109 q 888 0 1031 0 l 637 0 q 258 67 403 0 q 60 372 57 161 q 132 608 61 490 q 408 863 229 769 q 775 954 581 954 l 911 954 q 1029 903 977 954 q 1081 788 1081 853 "},"œ":{"x_min":-31,"x_max":1236,"ha":1236,"o":"m 1236 109 q 1158 20 1218 49 q 1066 0 1114 0 l 290 0 q 44 58 128 0 q -31 202 -31 111 q -27 238 -31 220 q 74 399 -10 341 q 312 461 163 461 l 816 461 q 959 436 900 461 q 1043 330 1043 403 q 964 206 1043 255 l 748 206 l 821 352 l 667 352 l 624 212 q 614 160 614 181 q 706 109 614 109 l 1236 109 m 420 352 l 273 352 l 212 178 q 208 157 208 167 q 309 107 208 107 q 345 109 328 107 l 420 352 "},"!":{"x_min":146,"x_max":738,"ha":624,"o":"m 738 954 l 399 299 l 239 299 l 402 954 l 738 954 m 408 96 q 369 11 408 46 q 276 -24 331 -24 q 184 11 222 -24 q 146 96 146 47 q 184 182 146 146 q 278 218 222 218 q 369 182 331 218 q 408 96 408 146 "},"ç":{"x_min":-20,"x_max":849,"ha":839,"o":"m 849 109 q 786 26 834 55 q 685 0 743 0 l 276 0 q 80 39 159 0 q -20 188 -20 88 q -18 210 -20 199 q 107 400 -5 332 q 341 461 206 461 l 512 461 q 610 424 569 461 q 651 335 651 387 q 609 244 651 281 q 511 207 568 207 q 413 244 454 207 q 374 335 373 281 q 374 352 374 335 l 293 352 l 239 202 q 233 168 233 183 q 327 109 233 109 l 849 109 m 483 -130 q 445 -226 483 -190 q 313 -269 400 -269 l 79 -269 q 245 -160 101 -160 l 355 -160 q 370 -152 368 -154 q 377 -140 376 -149 q 366 -109 379 -121 q 334 -99 354 -98 q 259 -99 334 -99 l 282 -39 l 357 20 l 419 20 l 352 -29 q 483 -130 483 -29 "},"È":{"x_min":31,"x_max":1114,"ha":1076,"o":"m 1114 791 q 1061 676 1114 723 q 933 629 1009 629 q 807 676 859 629 q 755 790 755 723 q 764 845 755 821 l 684 845 q 618 812 645 845 q 592 741 592 780 q 613 650 592 709 q 635 559 635 591 q 556 483 635 521 q 410 401 443 429 q 331 226 331 335 q 423 121 331 145 q 581 109 468 109 l 1075 109 q 1013 25 1066 56 q 909 0 967 0 l 353 0 q 142 42 228 0 q 31 209 31 98 q 151 429 31 330 q 385 548 250 511 q 346 702 346 633 q 485 901 346 834 q 742 954 593 954 l 949 954 q 1065 905 1017 954 q 1114 791 1114 856 m 891 1012 l 814 1012 l 650 1222 l 832 1222 l 891 1012 "},"ﬁ":{"x_min":-104,"x_max":1178,"ha":1169,"o":"m 1128 727 q 1075 612 1128 660 q 949 565 1023 565 q 821 612 873 565 q 769 727 769 659 q 821 841 769 794 q 949 889 873 889 q 1075 841 1023 889 q 1128 727 1128 793 m 1178 109 q 1104 20 1160 49 q 1018 0 1064 0 l 750 0 q 653 82 653 0 q 662 130 653 104 l 731 352 l 397 352 q 454 149 459 294 q 271 -155 447 -21 q -32 -273 112 -277 q -82 -251 -60 -272 q -104 -201 -104 -230 q -99 -177 -104 -189 l 74 311 q 12 346 38 320 q -17 412 -17 377 q -2 461 -17 437 l 125 461 l 252 818 l 496 818 l 346 461 l 1008 461 l 900 109 l 1178 109 m 254 44 q 272 135 272 96 q 236 219 272 191 q 63 -171 180 89 q 177 -73 117 -142 q 254 44 236 -7 "},"{":{"x_min":-20.203125,"x_max":645,"ha":673,"o":"m 645 1025 l 619 954 l 579 954 q 525 928 542 954 q 500 867 518 919 l 388 548 l 244 460 l 328 377 l 201 14 q 185 -49 185 -33 q 222 -71 185 -71 l 263 -71 l 236 -142 l 87 -142 q -20 -66 -20 -142 q -8 -5 -20 -40 l 139 417 l 96 460 l 186 549 l 305 888 q 496 1025 351 1025 l 645 1025 "},"X":{"x_min":1,"x_max":1363,"ha":1249,"o":"m 1363 829 q 1307 711 1363 759 q 1183 667 1254 667 q 1089 691 1136 667 q 1017 755 1042 716 l 787 515 l 894 109 l 1249 109 q 1184 25 1240 55 q 1077 0 1137 0 l 810 0 q 696 40 745 0 q 633 143 652 78 l 587 299 l 370 74 q 181 -18 282 -18 q 56 26 110 -18 q 1 145 1 74 q 53 260 1 212 q 181 308 106 308 q 344 213 293 308 l 551 430 l 468 783 l 131 783 l 233 954 l 518 954 q 725 806 694 954 l 758 646 l 961 858 q 1057 951 1034 934 q 1182 992 1112 992 q 1307 947 1254 992 q 1363 829 1363 900 "},"ô":{"x_min":-31,"x_max":1154,"ha":807,"o":"m 1154 461 q 991 352 1126 352 l 566 352 q 603 297 589 337 q 615 228 617 257 q 515 51 605 115 q 291 -11 429 -10 q 45 52 131 -12 q -31 201 -31 109 q -27 238 -31 220 q 74 399 -9 340 q 312 461 163 461 l 1154 461 m 415 352 l 260 352 l 198 178 q 194 153 194 165 q 302 95 194 95 q 325 95 315 95 l 415 352 m 572 544 l 455 544 l 398 626 l 292 544 l 183 544 l 335 716 l 484 716 l 572 544 "},"¼":{"x_min":-55.609375,"x_max":1558,"ha":1569,"o":"m 433 837 l 275 344 l 63 344 l 209 814 l 86 814 l 156 954 l 361 954 q 443 883 443 954 q 433 837 443 861 m 1313 964 l 103 -38 l -55 -38 l 1154 964 l 1313 964 m 1558 322 l 1500 171 l 1364 171 l 1303 0 l 1103 0 l 1166 171 l 909 171 q 829 221 829 171 q 847 262 829 245 l 1006 417 q 939 450 966 424 q 909 516 909 477 q 952 594 909 566 q 1042 618 989 618 q 1138 591 1098 618 q 1185 507 1185 561 q 1146 427 1185 464 l 1034 322 l 1213 322 l 1323 610 l 1519 610 l 1415 322 l 1558 322 "},"#":{"x_min":18,"x_max":1036,"ha":928,"o":"m 1036 662 l 991 561 l 806 561 l 746 396 l 932 396 l 886 292 l 711 292 l 604 -1 l 467 -1 l 572 292 l 376 292 l 270 -1 l 132 0 l 235 293 l 18 293 l 66 396 l 269 396 l 328 561 l 111 561 l 159 663 l 360 663 l 466 956 l 607 956 l 501 662 l 703 662 l 810 956 l 942 956 l 836 662 l 1036 662 m 671 561 l 470 561 l 411 396 l 612 396 l 671 561 "},"Ê":{"x_min":31,"x_max":1114,"ha":1076,"o":"m 1114 791 q 1061 676 1114 723 q 933 629 1009 629 q 807 676 859 629 q 755 790 755 723 q 764 845 755 821 l 684 845 q 618 812 645 845 q 592 741 592 780 q 613 650 592 709 q 635 559 635 591 q 556 483 635 521 q 410 401 443 429 q 331 226 331 335 q 423 121 331 145 q 581 109 468 109 l 1075 109 q 1013 25 1066 56 q 909 0 967 0 l 353 0 q 142 42 228 0 q 31 209 31 98 q 151 429 31 330 q 385 548 250 511 q 346 702 346 633 q 485 901 346 834 q 742 954 593 954 l 949 954 q 1065 905 1017 954 q 1114 791 1114 856 m 977 1014 l 860 1014 l 803 1096 l 697 1014 l 588 1014 l 740 1186 l 889 1186 l 977 1014 "},")":{"x_min":-90.5,"x_max":497,"ha":528,"o":"m 497 572 q 486 438 497 500 q 44 -135 424 97 l -90 -135 q 149 126 35 -35 q 297 444 272 303 q 316 653 316 552 q 228 1042 316 873 l 335 1042 q 497 572 497 862 "},"Å":{"x_min":-49,"x_max":1881,"ha":1531,"o":"m 1881 461 q 1715 352 1846 352 l 1312 352 l 1185 0 l 942 0 l 1069 352 l 861 352 q 193 -60 519 -60 q 33 -24 98 -60 q -49 106 -49 20 q 12 251 -49 180 q 309 418 110 364 q 654 461 465 461 l 786 461 l 1195 954 l 1524 954 l 1349 461 l 1881 461 m 1247 841 l 951 461 l 1102 461 l 1247 841 m 695 352 q 337 278 440 352 q 253 149 253 217 q 314 91 253 91 q 524 185 398 91 q 695 352 635 267 m 1530 1136 q 1493 1049 1530 1085 q 1404 1013 1456 1013 q 1316 1049 1353 1013 q 1279 1136 1279 1085 q 1316 1225 1279 1189 q 1404 1262 1353 1262 q 1493 1225 1457 1262 q 1530 1136 1530 1189 m 1466 1136 q 1448 1179 1466 1161 q 1406 1198 1430 1197 q 1363 1180 1381 1198 q 1345 1136 1345 1161 q 1361 1096 1344 1113 q 1403 1077 1378 1078 q 1446 1094 1427 1075 q 1466 1136 1466 1112 "},"Δ":{"x_min":31,"x_max":526,"ha":555,"o":"m 526 0 l 31 0 l 31 83 l 232 1064 l 325 1064 q 431 546 332 1024 q 526 80 526 81 l 526 0 m 432 90 l 277 894 l 123 90 l 432 90 "},"ø":{"x_min":-31,"x_max":1154,"ha":807,"o":"m 1154 461 q 991 352 1126 352 l 566 352 q 603 297 589 337 q 615 228 617 257 q 515 51 605 115 q 291 -11 429 -10 q 45 52 131 -12 q -31 201 -31 109 q -27 238 -31 220 q 74 399 -9 340 q 312 461 163 461 l 1154 461 m 415 352 l 260 352 l 198 178 q 194 153 194 165 q 302 95 194 95 q 325 95 315 95 l 415 352 m 572 553 l 118 -74 l 33 -74 l 481 553 l 572 553 "},"â":{"x_min":-17,"x_max":876,"ha":875,"o":"m 876 109 q 709 0 843 0 l 453 0 q 343 71 343 0 q 161 -14 269 -14 q 32 34 82 -14 q -17 162 -17 83 q 88 386 -17 304 q 326 461 184 461 l 704 461 l 593 109 l 876 109 m 428 352 l 289 352 l 241 194 q 237 167 237 179 q 352 108 237 108 l 428 352 m 622 545 l 505 545 l 448 627 l 342 545 l 233 545 l 385 717 l 534 717 l 622 545 "},"}":{"x_min":-116,"x_max":515.46875,"ha":673,"o":"m 503 899 l 370 465 l 414 422 l 328 333 l 222 -5 q 31 -142 175 -142 l -116 -142 l -91 -71 l -51 -71 q 2 -46 -14 -71 q 27 15 9 -36 l 127 334 l 255 422 l 181 505 l 293 867 q 310 932 310 915 q 283 954 310 954 l 264 954 l 287 1025 l 418 1025 q 515 954 515 1025 q 503 899 515 930 "},"‰":{"x_min":31,"x_max":1107,"ha":1112,"o":"m 440 839 q 398 746 440 784 q 298 708 356 708 q 197 746 239 708 q 156 837 156 784 q 197 929 156 891 q 298 968 239 968 q 398 929 356 968 q 440 839 440 891 m 1107 111 q 1065 20 1107 58 q 965 -18 1023 -18 q 865 20 907 -18 q 824 111 824 58 q 865 203 824 165 q 965 242 907 242 q 1065 203 1023 242 q 1107 111 1107 165 m 791 954 l 190 0 l 31 0 l 625 954 l 791 954 m 705 111 q 663 20 705 58 q 563 -18 621 -18 q 463 20 504 -18 q 422 111 422 58 q 463 203 422 165 q 563 242 504 242 q 663 203 622 242 q 705 111 705 165 "},"Ä":{"x_min":-49,"x_max":1881,"ha":1531,"o":"m 1881 461 q 1715 352 1846 352 l 1312 352 l 1185 0 l 942 0 l 1069 352 l 861 352 q 193 -60 519 -60 q 33 -24 98 -60 q -49 106 -49 20 q 12 251 -49 180 q 309 418 110 364 q 654 461 465 461 l 786 461 l 1195 954 l 1524 954 l 1349 461 l 1881 461 m 1247 841 l 951 461 l 1102 461 l 1247 841 m 695 352 q 337 278 440 352 q 253 149 253 217 q 314 91 253 91 q 524 185 398 91 q 695 352 635 267 m 1617 1102 q 1587 1038 1617 1063 q 1518 1014 1558 1014 q 1450 1040 1480 1014 q 1420 1104 1420 1066 q 1450 1168 1420 1142 q 1518 1194 1480 1194 q 1587 1168 1558 1194 q 1617 1102 1617 1141 m 1338 1102 q 1308 1038 1338 1063 q 1239 1014 1278 1014 q 1170 1040 1200 1014 q 1141 1104 1141 1066 q 1170 1168 1141 1142 q 1239 1194 1200 1194 q 1307 1168 1279 1194 q 1338 1102 1338 1141 "},"¸":{"x_min":-112,"x_max":292,"ha":695,"o":"m 292 -139 q 254 -235 292 -199 q 122 -278 209 -278 l -112 -278 q 54 -169 -89 -169 l 164 -169 q 179 -161 177 -163 q 186 -149 185 -158 q 175 -118 188 -130 q 143 -108 163 -107 q 68 -108 143 -108 l 91 -48 l 166 11 l 228 11 l 161 -38 q 292 -139 292 -38 "},"a":{"x_min":-17,"x_max":876,"ha":875,"o":"m 876 109 q 709 0 843 0 l 453 0 q 343 71 343 0 q 161 -14 269 -14 q 32 34 82 -14 q -17 162 -17 83 q 88 386 -17 304 q 326 461 184 461 l 704 461 l 593 109 l 876 109 m 428 352 l 289 352 l 241 194 q 237 167 237 179 q 352 108 237 108 l 428 352 "},"—":{"x_min":21,"x_max":1328,"ha":1481,"o":"m 1328 461 l 1268 289 l 21 289 l 80 461 l 1328 461 "},"=":{"x_min":218.390625,"x_max":902.71875,"ha":834,"o":"m 902 596 q 825 487 883 530 q 714 447 771 447 l 238 447 l 319 596 l 902 596 m 881 371 l 801 222 l 218 222 q 305 330 236 283 q 406 371 365 371 l 881 371 "},"N":{"x_min":0,"x_max":1583,"ha":1325,"o":"m 1583 812 q 1526 694 1583 741 q 1401 649 1473 649 q 1278 693 1328 649 l 1053 69 q 942 -21 1021 -21 q 817 70 837 -21 l 705 602 l 552 152 q 461 40 528 82 q 322 0 398 0 l 0 0 q 50 105 29 74 q 144 164 90 164 q 243 150 176 164 q 343 136 309 136 q 444 223 414 136 l 653 829 q 698 930 679 907 q 798 971 730 971 q 930 826 901 971 l 1022 365 l 1162 756 q 1400 975 1240 975 q 1525 930 1472 975 q 1583 812 1583 882 "},"˚":{"x_min":505,"x_max":756,"ha":695,"o":"m 756 668 q 719 581 756 617 q 630 545 682 545 q 542 581 579 545 q 505 668 505 617 q 542 757 505 721 q 630 794 579 794 q 719 757 683 794 q 756 668 756 721 m 692 668 q 674 711 692 693 q 632 730 656 729 q 589 712 607 730 q 571 668 571 693 q 587 628 570 645 q 629 609 604 610 q 672 626 653 607 q 692 668 692 644 "},"ú":{"x_min":-2.921875,"x_max":900,"ha":897,"o":"m 900 109 q 837 23 885 52 q 756 0 799 0 l 473 0 q 373 63 373 0 q 230 0 320 0 l 111 0 q 25 28 56 0 q -2 98 -2 54 q 6 148 -2 122 l 120 461 l 366 461 l 240 109 l 377 109 l 503 461 l 747 461 l 623 109 l 900 109 m 650 753 l 441 543 l 340 543 l 463 753 l 650 753 "},"⁄":{"x_min":-407.609375,"x_max":961.71875,"ha":538,"o":"m 961 964 l -248 -38 l -407 -38 l 802 964 l 961 964 "},"2":{"x_min":55,"x_max":911,"ha":996,"o":"m 911 722 q 725 382 911 539 q 368 197 568 250 l 833 197 l 763 0 l 55 0 l 113 193 q 423 392 264 254 q 615 687 615 559 q 513 820 615 820 l 504 820 q 508 790 508 801 q 451 674 508 721 q 326 629 398 629 q 203 674 256 629 q 148 791 148 721 q 253 943 148 904 q 492 971 324 971 q 751 941 667 971 q 911 722 911 886 "},"ü":{"x_min":-2.921875,"x_max":900,"ha":897,"o":"m 900 109 q 837 23 885 52 q 756 0 799 0 l 473 0 q 373 63 373 0 q 230 0 320 0 l 111 0 q 25 28 56 0 q -2 98 -2 54 q 6 148 -2 122 l 120 461 l 366 461 l 240 109 l 377 109 l 503 461 l 747 461 l 623 109 l 900 109 m 687 633 q 657 569 687 594 q 588 545 628 545 q 520 571 550 545 q 490 635 490 597 q 520 699 490 673 q 588 725 550 725 q 657 699 628 725 q 687 633 687 672 m 408 633 q 378 569 408 594 q 309 545 348 545 q 240 571 270 545 q 211 635 211 597 q 240 699 211 673 q 309 725 270 725 q 377 699 349 725 q 408 633 408 672 "},"¯":{"x_min":326.21875,"x_max":786.0625,"ha":695,"o":"m 786 693 l 733 562 l 326 562 l 379 693 l 786 693 "},"Z":{"x_min":-17.46875,"x_max":1322,"ha":1083,"o":"m 1322 461 q 1195 352 1289 352 l 777 352 q 779 322 779 342 q 578 -33 779 125 q 187 -183 390 -183 q 34 -129 91 -183 q -17 17 -22 -75 q 153 323 -4 198 q 477 456 292 432 q 363 587 442 526 l 737 783 l 228 783 l 330 954 l 1036 954 q 1016 829 1036 874 q 927 740 992 774 l 655 592 q 752 461 727 535 l 1322 461 m 535 328 q 524 352 533 338 q 391 297 465 345 q 282 200 322 252 q 178 -17 178 66 q 230 -77 178 -77 q 433 47 328 -77 q 538 294 538 171 q 535 328 538 312 "},"u":{"x_min":-2.921875,"x_max":900,"ha":897,"o":"m 900 109 q 837 23 885 52 q 756 0 799 0 l 473 0 q 373 63 373 0 q 230 0 320 0 l 111 0 q 25 28 56 0 q -2 98 -2 54 q 6 148 -2 122 l 120 461 l 366 461 l 240 109 l 377 109 l 503 461 l 747 461 l 623 109 l 900 109 "},"":{"x_min":-104,"x_max":1176,"ha":1175,"o":"m 1160 954 l 899 109 l 1176 109 q 1102 20 1158 49 q 1016 0 1063 0 l 749 0 q 652 82 652 0 q 661 130 652 104 l 730 352 l 397 352 q 455 149 460 294 q 271 -155 448 -21 q -32 -273 113 -277 q -82 -251 -60 -272 q -104 -201 -104 -230 q -99 -177 -104 -189 l 74 311 q 12 346 38 320 q -17 412 -17 377 q -2 461 -17 437 l 125 461 l 252 818 l 496 818 l 346 461 l 764 461 l 918 954 l 1160 954 m 255 44 q 273 135 273 96 q 236 219 273 191 q 63 -171 180 89 q 178 -73 118 -142 q 255 44 237 -7 "},"˜":{"x_min":326.5,"x_max":832.5,"ha":695,"o":"m 832 700 l 789 589 q 663 520 730 520 q 559 562 610 520 q 454 604 508 604 q 326 540 388 604 l 377 646 q 501 713 428 713 q 618 667 555 713 q 709 630 670 630 q 832 700 753 630 "},"Ó":{"x_min":-5,"x_max":1171,"ha":1231,"o":"m 1171 605 q 973 168 1171 354 q 543 -11 782 -11 q 266 83 368 -11 q 165 344 165 178 q 204 527 165 430 q 305 696 242 620 l 603 696 q 476 522 526 628 q 426 313 426 413 q 459 174 426 231 q 577 107 500 107 q 807 271 704 107 q 899 555 899 419 q 836 722 899 662 q 664 783 774 783 l -5 783 l 98 954 l 722 954 q 1031 876 912 954 q 1171 605 1171 785 m 849 1224 l 640 1014 l 539 1014 l 662 1224 l 849 1224 "},"k":{"x_min":-39,"x_max":930,"ha":933,"o":"m 930 109 q 852 20 913 49 q 760 0 809 0 l 493 0 q 401 71 401 0 q 410 120 401 94 l 469 309 q 225 83 438 277 q 146 19 173 34 q 59 0 110 0 l -39 0 l 215 818 l 456 818 l 290 287 l 568 581 l 727 581 l 566 418 l 619 418 q 715 347 715 418 q 704 295 715 325 l 647 109 l 930 109 "},"ˇ":{"x_min":337,"x_max":726,"ha":695,"o":"m 726 721 l 573 549 l 424 549 l 337 721 l 453 721 l 510 639 l 615 721 l 726 721 "},"Ù":{"x_min":-22,"x_max":1129,"ha":1108,"o":"m 1129 804 q 1093 604 1129 726 q 1020 412 1061 499 q 806 92 911 182 q 445 -24 672 -24 q 252 26 325 -24 q 167 199 167 85 q 186 307 167 252 l 334 783 l -22 783 l 76 954 l 630 954 l 436 320 q 418 223 418 268 q 452 141 418 171 q 537 114 484 114 q 863 420 723 114 q 933 629 917 540 q 793 676 852 629 q 730 805 730 727 q 792 932 730 880 q 928 982 851 982 q 1067 934 1010 982 q 1129 804 1129 884 m 792 1006 l 715 1006 l 551 1216 l 733 1216 l 792 1006 "},"Ÿ":{"x_min":7,"x_max":1217,"ha":1171,"o":"m 1217 954 l 960 128 q 884 34 938 69 q 764 0 830 0 l 217 0 q 284 96 234 61 q 402 131 334 131 l 716 131 l 845 532 l 634 316 q 460 250 569 250 q 353 277 397 250 q 304 366 304 308 q 313 422 304 394 l 438 823 l 364 823 q 367 791 367 804 q 314 676 367 723 q 187 629 261 629 q 59 676 112 629 q 7 791 7 723 q 59 909 7 861 q 174 954 108 954 l 587 954 q 658 929 631 954 q 686 861 686 904 q 676 812 686 837 l 548 402 l 953 911 q 1002 941 968 928 q 1061 954 1035 954 l 1217 954 m 1090 1101 q 1060 1037 1090 1062 q 991 1013 1031 1013 q 923 1039 953 1013 q 893 1103 893 1065 q 923 1167 893 1141 q 991 1193 953 1193 q 1060 1167 1031 1193 q 1090 1101 1090 1140 m 811 1101 q 781 1037 811 1062 q 712 1013 751 1013 q 643 1039 673 1013 q 614 1103 614 1065 q 643 1167 614 1141 q 712 1193 673 1193 q 780 1167 752 1193 q 811 1101 811 1140 "},"€":{"x_min":-46,"x_max":1053,"ha":1049,"o":"m 688 372 l 607 223 l 459 223 q 746 108 543 108 l 928 108 q 856 16 915 41 q 737 -1 816 -1 l 679 -1 q 150 223 247 -1 l -46 223 l 34 372 l 123 372 q 129 447 123 408 l 20 447 l 99 596 l 184 596 l 190 608 q 441 860 277 766 q 786 954 603 954 l 884 954 q 1001 903 949 954 q 1053 788 1053 853 q 998 669 1053 717 q 871 622 943 622 q 744 668 798 622 q 688 788 688 717 q 693 829 688 810 q 552 751 627 829 q 455 596 482 678 l 756 596 l 675 447 l 417 447 q 411 393 411 427 q 411 372 411 382 l 688 372 "},"¢":{"x_min":78,"x_max":740,"ha":839,"o":"m 740 109 q 677 26 725 55 q 576 0 633 0 l 445 0 l 375 -212 l 268 -212 l 339 1 q 162 46 231 7 q 78 187 78 95 q 79 210 78 199 q 205 400 92 332 q 438 461 304 461 l 499 461 l 563 654 l 671 654 l 604 458 q 739 333 739 439 q 702 245 739 280 q 603 208 663 208 q 503 248 542 208 q 470 329 470 283 q 472 352 470 341 l 390 352 l 337 202 q 331 169 331 183 q 425 109 331 109 l 740 109 "},"Ω":{"x_min":40,"x_max":676,"ha":714,"o":"m 676 -1 l 414 -1 l 414 331 l 538 331 l 538 977 l 179 977 l 179 331 l 303 331 l 303 -1 l 40 -1 l 40 87 l 224 87 l 224 248 l 159 248 q 105 269 126 248 q 85 323 85 290 l 85 985 q 105 1039 85 1018 q 159 1061 126 1061 l 555 1061 q 610 1039 588 1061 q 632 985 632 1018 l 632 323 q 611 269 632 290 q 557 248 590 248 l 493 248 l 493 87 l 676 87 l 676 -1 "},"ß":{"x_min":-55,"x_max":952,"ha":949,"o":"m 952 109 q 808 0 910 0 l 39 0 q -7 108 -7 46 q 43 224 -7 177 q 166 272 93 272 q 340 154 299 272 q 346 109 348 129 l 515 109 l 447 300 q 438 351 438 328 q 480 430 438 399 q 549 466 484 433 l 677 531 l 707 638 q 714 673 714 660 q 661 711 714 711 l 563 711 q 434 609 470 711 l 343 352 l -55 352 l -10 461 l 140 461 l 170 549 q 546 828 260 828 l 705 828 q 811 791 771 828 q 852 690 852 754 q 843 631 852 662 l 790 439 l 667 371 l 728 196 q 721 109 748 140 l 952 109 "},"é":{"x_min":-24,"x_max":852,"ha":848,"o":"m 852 109 q 786 26 837 56 q 683 0 741 0 l 305 0 q -24 198 -24 0 q 88 398 -24 326 q 319 461 185 461 l 417 461 q 569 434 503 461 q 660 327 655 399 q 590 207 663 255 l 366 207 l 439 352 l 295 352 l 239 189 q 235 163 235 175 q 323 109 235 109 l 852 109 m 612 753 l 403 543 l 302 543 l 425 753 l 612 753 "},"s":{"x_min":-4,"x_max":819,"ha":818,"o":"m 819 109 q 767 31 816 63 q 659 0 717 0 l 144 0 q -4 91 -4 0 q -2 108 -4 99 q 40 171 2 149 q 115 191 73 191 q 313 110 188 188 q 349 200 349 154 q 320 305 349 223 l 243 236 l 109 236 l 288 402 q 271 437 276 423 q 262 494 262 462 l 428 672 q 541 569 541 653 q 512 479 541 520 q 562 346 537 413 q 594 208 594 261 q 547 109 594 150 l 819 109 "},"B":{"x_min":14,"x_max":1239,"ha":1143,"o":"m 1239 740 q 1133 553 1239 640 q 942 438 1070 501 q 994 275 994 348 q 798 51 994 124 q 473 0 659 0 l 121 0 l 366 696 l 610 696 l 402 109 l 436 109 q 637 136 555 109 q 758 270 758 177 q 731 342 758 300 q 704 402 704 383 q 705 416 704 412 q 779 474 718 446 q 901 548 862 514 q 966 678 966 604 q 806 783 966 783 l 14 783 l 118 954 l 909 954 q 1143 911 1065 954 q 1239 740 1239 860 "},"…":{"x_min":97,"x_max":1470,"ha":1329,"o":"m 1470 96 q 1431 11 1470 46 q 1337 -24 1392 -24 q 1245 11 1283 -24 q 1208 96 1208 47 q 1246 182 1208 146 q 1339 218 1284 218 q 1431 182 1393 218 q 1470 96 1470 146 m 915 96 q 876 11 915 46 q 782 -24 837 -24 q 690 11 728 -24 q 653 96 653 47 q 691 182 653 146 q 784 218 729 218 q 876 182 838 218 q 915 96 915 146 m 359 96 q 320 11 359 46 q 227 -24 282 -24 q 135 11 173 -24 q 97 96 97 47 q 135 182 97 146 q 229 218 174 218 q 321 182 283 218 q 359 96 359 146 "},"?":{"x_min":53,"x_max":830.015625,"ha":774,"o":"m 830 717 q 696 514 828 592 q 462 425 621 468 l 405 299 l 164 299 l 210 427 q 292 498 229 477 q 394 524 343 511 q 578 720 578 585 q 525 822 578 798 q 407 837 491 838 q 414 790 414 811 q 361 676 414 724 q 233 629 308 629 q 105 676 158 629 q 53 791 53 724 q 109 909 53 861 q 233 954 162 954 l 486 954 q 830 717 832 954 m 387 96 q 348 11 387 46 q 255 -24 310 -24 q 163 11 201 -24 q 125 96 125 47 q 163 182 125 146 q 257 218 202 218 q 349 182 311 218 q 387 96 387 146 "},"H":{"x_min":-37,"x_max":1864,"ha":1527,"o":"m 1864 461 q 1714 352 1845 352 l 1312 352 l 1188 0 l 943 0 l 1069 352 l 840 352 q 233 -121 648 -120 q 49 -76 121 -121 q -37 81 -37 -24 q 18 248 -37 164 q 533 461 158 461 l 632 461 l 819 1057 l 1060 1057 l 874 461 l 1107 461 l 1281 954 l 1526 954 l 1350 461 l 1864 461 m 597 352 l 578 352 q 336 283 443 352 q 213 79 213 205 q 291 -8 213 -8 q 485 128 389 -8 q 597 352 557 230 "},"î":{"x_min":-8,"x_max":517,"ha":517,"o":"m 517 109 q 443 20 499 49 q 357 0 403 0 l 89 0 q -8 81 -8 0 q 1 130 -8 104 l 104 461 l 347 461 l 238 109 l 517 109 m 450 545 l 333 545 l 276 627 l 170 545 l 61 545 l 213 717 l 362 717 l 450 545 "},"c":{"x_min":-20,"x_max":849,"ha":839,"o":"m 849 109 q 786 26 834 55 q 685 0 743 0 l 276 0 q 80 39 159 0 q -20 188 -20 88 q -18 210 -20 199 q 107 400 -5 332 q 341 461 206 461 l 512 461 q 610 424 569 461 q 651 335 651 387 q 609 244 651 281 q 511 207 568 207 q 413 244 454 207 q 374 335 373 281 q 374 352 374 335 l 293 352 l 239 202 q 233 168 233 183 q 327 109 233 109 l 849 109 "},"¶":{"x_min":47,"x_max":868.953125,"ha":880,"o":"m 868 1025 l 456 -146 l 301 -146 l 689 908 l 590 908 l 202 -146 l 47 -146 l 261 428 q 107 527 165 449 q 52 702 52 602 q 145 925 52 837 q 442 1025 251 1025 l 868 1025 "},"−":{"x_min":6,"x_max":835,"ha":834,"o":"m 835 540 l 769 362 l 6 362 l 71 540 l 835 540 "},"≠":{"x_min":69,"x_max":543,"ha":612,"o":"m 543 265 l 307 265 l 253 47 l 174 66 l 222 265 l 69 265 l 69 346 l 243 346 l 284 513 l 69 513 l 69 595 l 305 595 l 359 812 l 438 792 l 389 595 l 543 595 l 543 513 l 368 513 l 327 346 l 543 346 l 543 265 "},"•":{"x_min":58,"x_max":411,"ha":472,"o":"m 411 470 q 359 355 411 402 q 234 308 307 308 q 109 355 161 308 q 58 470 58 402 q 109 585 58 538 q 234 633 161 633 q 359 585 307 633 q 411 470 411 538 "},"¥":{"x_min":22,"x_max":1228,"ha":1292,"o":"m 1228 283 q 1150 177 1209 211 q 1057 152 1108 152 l 955 152 l 853 -177 l 610 -177 l 714 152 l 464 152 q 542 257 483 223 q 634 283 584 283 l 754 283 l 844 572 l 664 397 q 479 330 595 330 q 416 353 452 330 q 363 448 363 388 q 373 503 363 474 l 473 823 l 370 823 q 375 789 375 806 q 323 675 375 722 q 198 628 271 628 q 73 675 125 628 q 22 789 22 722 q 68 906 22 858 q 192 954 115 954 l 616 954 q 691 926 662 954 q 719 855 719 899 q 708 802 719 829 l 606 474 l 995 903 q 1101 954 1044 954 l 1205 954 l 996 283 l 1228 283 "},"(":{"x_min":126,"x_max":714.5,"ha":528,"o":"m 714 1042 q 474 778 587 941 q 326 459 352 602 q 308 251 308 349 q 397 -138 308 28 l 289 -138 q 126 331 126 41 q 579 1042 126 764 l 714 1042 "},"U":{"x_min":-22,"x_max":1129,"ha":1108,"o":"m 1129 804 q 1093 604 1129 726 q 1020 412 1061 499 q 806 92 911 182 q 445 -24 672 -24 q 252 26 325 -24 q 167 199 167 85 q 186 307 167 252 l 334 783 l -22 783 l 76 954 l 630 954 l 436 320 q 418 223 418 268 q 452 141 418 171 q 537 114 484 114 q 863 420 723 114 q 933 629 917 540 q 793 676 852 629 q 730 805 730 727 q 792 932 730 880 q 928 982 851 982 q 1067 934 1010 982 q 1129 804 1129 884 "},"◊":{"x_min":20,"x_max":541,"ha":560,"o":"m 541 389 l 305 45 l 256 45 l 20 389 l 256 734 l 305 734 l 541 389 m 447 389 l 280 641 l 114 389 l 280 138 l 447 389 "},"Ñ":{"x_min":0,"x_max":1583,"ha":1325,"o":"m 1583 812 q 1526 694 1583 741 q 1401 649 1473 649 q 1278 693 1328 649 l 1053 69 q 942 -21 1021 -21 q 817 70 837 -21 l 705 602 l 552 152 q 461 40 528 82 q 322 0 398 0 l 0 0 q 50 105 29 74 q 144 164 90 164 q 243 150 176 164 q 343 136 309 136 q 444 223 414 136 l 653 829 q 698 930 679 907 q 798 971 730 971 q 930 826 901 971 l 1022 365 l 1162 756 q 1400 975 1240 975 q 1525 930 1472 975 q 1583 812 1583 882 m 1360 1192 l 1317 1081 q 1191 1012 1258 1012 q 1087 1054 1138 1012 q 982 1096 1036 1096 q 854 1032 916 1096 l 905 1138 q 1029 1205 956 1205 q 1146 1159 1083 1205 q 1237 1122 1198 1122 q 1360 1192 1281 1122 "},"F":{"x_min":-1,"x_max":1334,"ha":1139,"o":"m 1334 954 l 1220 783 l 960 783 l 860 461 l 1095 461 q 959 352 1085 353 l 826 351 l 779 202 q 502 0 709 0 l 31 0 q 83 108 60 76 q 175 165 122 165 q 192 163 183 165 l 509 112 l 717 783 l 345 783 q 194 732 261 783 q 122 592 122 676 q 147 526 122 534 q 213 627 159 589 q 328 664 263 664 q 450 620 398 664 q 506 501 506 574 q 441 374 506 419 q 303 335 386 335 q 92 396 176 335 q -1 584 -1 464 q 141 865 -1 764 q 453 954 266 954 l 1334 954 "},"­":{"x_min":6,"x_max":835,"ha":834,"o":"m 835 540 l 769 362 l 6 362 l 71 540 l 835 540 "},":":{"x_min":132,"x_max":432,"ha":528,"o":"m 432 372 q 397 295 432 327 q 312 264 362 264 q 230 295 264 264 q 196 372 196 327 q 230 449 196 417 q 314 481 265 481 q 397 449 362 481 q 432 372 432 417 m 368 87 q 333 10 368 42 q 250 -21 298 -21 q 166 10 200 -21 q 132 87 132 42 q 166 164 132 132 q 250 196 200 196 q 333 164 298 196 q 368 87 368 132 "},"Û":{"x_min":-22,"x_max":1129,"ha":1108,"o":"m 1129 804 q 1093 604 1129 726 q 1020 412 1061 499 q 806 92 911 182 q 445 -24 672 -24 q 252 26 325 -24 q 167 199 167 85 q 186 307 167 252 l 334 783 l -22 783 l 76 954 l 630 954 l 436 320 q 418 223 418 268 q 452 141 418 171 q 537 114 484 114 q 863 420 723 114 q 933 629 917 540 q 793 676 852 629 q 730 805 730 727 q 792 932 730 880 q 928 982 851 982 q 1067 934 1010 982 q 1129 804 1129 884 m 907 1013 l 790 1013 l 733 1095 l 627 1013 l 518 1013 l 670 1185 l 819 1185 l 907 1013 "},"*":{"x_min":158,"x_max":552,"ha":656,"o":"m 552 823 l 452 823 l 519 761 l 460 707 l 394 769 l 394 687 l 309 687 l 309 773 l 237 707 l 178 761 l 246 823 l 158 823 l 158 900 l 249 900 l 181 959 l 241 1014 l 309 953 l 309 1043 l 394 1043 l 394 957 l 455 1014 l 515 959 l 449 900 l 552 900 l 552 823 "},"†":{"x_min":128,"x_max":890,"ha":786,"o":"m 890 599 q 849 507 890 545 q 750 470 808 470 q 699 478 720 470 q 575 550 642 501 l 351 -244 l 298 -210 l 423 589 l 407 607 q 362 521 402 556 q 266 487 322 487 q 168 525 209 487 q 128 617 128 563 q 169 707 128 670 q 267 745 210 745 q 338 728 299 745 q 436 672 400 700 l 480 949 l 702 949 l 596 631 q 592 624 592 628 q 612 606 592 615 q 655 692 615 657 q 751 728 694 728 q 848 690 807 728 q 890 599 890 652 "},"∕":{"x_min":-407.609375,"x_max":961.71875,"ha":538,"o":"m 961 964 l -248 -38 l -407 -38 l 802 964 l 961 964 "},"°":{"x_min":79,"x_max":476,"ha":695,"o":"m 476 840 q 418 699 476 757 q 277 642 360 642 q 136 699 194 642 q 79 840 79 757 q 136 981 79 923 q 277 1039 194 1039 q 418 981 360 1039 q 476 840 476 923 m 387 840 q 356 922 387 888 q 277 956 326 956 q 198 922 229 956 q 168 840 168 888 q 198 758 168 792 q 277 725 229 725 q 356 758 326 725 q 387 840 387 792 "},"V":{"x_min":-62,"x_max":1054.015625,"ha":939,"o":"m 1054 810 q 992 644 1053 720 l 556 107 q 356 0 467 0 l 183 0 l 247 783 l -62 783 l 39 954 l 367 954 q 459 920 422 954 q 496 833 496 886 q 496 820 496 827 l 425 130 l 841 649 q 734 705 776 661 q 693 810 693 750 q 745 925 693 877 q 873 973 798 973 q 1001 924 948 973 q 1054 810 1054 876 "},"å":{"x_min":-17,"x_max":876,"ha":875,"o":"m 876 109 q 709 0 843 0 l 453 0 q 343 71 343 0 q 161 -14 269 -14 q 32 34 82 -14 q -17 162 -17 83 q 88 386 -17 304 q 326 461 184 461 l 704 461 l 593 109 l 876 109 m 428 352 l 289 352 l 241 194 q 237 167 237 179 q 352 108 237 108 l 428 352 m 590 668 q 553 581 590 617 q 464 545 516 545 q 376 581 413 545 q 339 668 339 617 q 376 757 339 721 q 464 794 413 794 q 553 757 517 794 q 590 668 590 721 m 526 668 q 508 711 526 693 q 466 730 490 729 q 423 712 441 730 q 405 668 405 693 q 421 628 404 645 q 463 609 438 610 q 506 626 487 607 q 526 668 526 644 "}," ":{"x_min":0,"x_max":0,"ha":265},"0":{"x_min":68,"x_max":994,"ha":1072,"o":"m 994 534 q 857 146 994 299 q 482 -11 714 -11 q 181 103 295 -11 q 68 405 68 217 q 206 793 68 639 q 580 953 349 953 q 881 837 768 953 q 994 534 994 722 m 704 612 q 586 814 704 814 q 403 616 470 814 q 353 321 353 467 q 472 121 353 121 q 654 317 588 121 q 704 612 704 464 "},"”":{"x_min":87,"x_max":656,"ha":526,"o":"m 656 954 l 497 662 l 368 662 l 470 954 l 656 954 m 375 954 l 216 662 l 87 662 l 190 954 l 375 954 "},"¾":{"x_min":69,"x_max":1813,"ha":1864,"o":"m 1552 964 l 342 -38 l 183 -38 l 1393 964 l 1552 964 m 1813 322 l 1755 171 l 1619 171 l 1558 0 l 1358 0 l 1421 171 l 1164 171 q 1084 221 1084 171 q 1102 262 1084 245 l 1261 417 q 1194 450 1221 424 q 1164 516 1164 477 q 1207 594 1164 566 q 1297 618 1244 618 q 1393 591 1353 618 q 1440 507 1440 561 q 1401 427 1440 464 l 1289 322 l 1468 322 l 1578 610 l 1774 610 l 1670 322 l 1813 322 m 703 954 l 556 735 q 645 669 608 712 q 689 569 689 620 q 568 378 689 442 q 288 323 464 323 q 153 343 211 323 q 69 436 69 373 q 115 514 69 484 q 205 541 155 541 q 296 514 256 541 q 343 436 343 484 q 337 411 343 424 q 427 444 393 413 q 464 531 464 476 q 400 634 464 591 q 281 677 346 672 l 384 812 l 156 812 l 206 954 l 703 954 "},"@":{"x_min":46,"x_max":1174,"ha":1219,"o":"m 1174 595 q 1082 366 1174 460 q 852 269 989 269 l 690 269 q 591 331 591 269 q 425 258 529 258 q 311 300 353 258 q 269 413 269 342 q 366 615 269 541 q 589 683 455 683 l 918 683 l 817 367 l 894 367 q 1023 442 966 367 q 1078 592 1078 514 q 950 817 1078 736 q 687 886 841 886 q 322 757 480 886 q 155 418 155 622 q 281 159 155 254 q 565 75 394 75 q 910 180 751 75 l 987 125 q 552 -14 810 -14 q 206 95 353 -14 q 46 408 46 216 q 51 475 46 444 q 287 838 91 702 q 708 965 470 965 q 1028 879 902 965 q 1174 595 1174 780 m 668 585 l 547 585 q 493 424 534 549 q 489 403 489 412 q 531 366 489 373 q 600 366 535 366 l 668 585 "},"ö":{"x_min":-31,"x_max":1154,"ha":807,"o":"m 1154 461 q 991 352 1126 352 l 566 352 q 603 297 589 337 q 615 228 617 257 q 515 51 605 115 q 291 -11 429 -10 q 45 52 131 -12 q -31 201 -31 109 q -27 238 -31 220 q 74 399 -9 340 q 312 461 163 461 l 1154 461 m 415 352 l 260 352 l 198 178 q 194 153 194 165 q 302 95 194 95 q 325 95 315 95 l 415 352 m 630 632 q 600 568 630 593 q 531 544 571 544 q 463 570 493 544 q 433 634 433 596 q 463 698 433 672 q 531 724 493 724 q 600 698 571 724 q 630 632 630 671 m 351 632 q 321 568 351 593 q 252 544 291 544 q 183 570 213 544 q 154 634 154 596 q 183 698 154 672 q 252 724 213 724 q 320 698 292 724 q 351 632 351 671 "},"i":{"x_min":-8.75,"x_max":517,"ha":517,"o":"m 449 738 q 396 623 449 670 q 270 576 344 576 q 142 623 194 576 q 90 738 90 670 q 142 853 90 806 q 270 901 194 901 q 396 853 344 901 q 449 738 449 806 m 517 109 q 443 20 499 49 q 356 0 403 0 l 88 0 q -8 81 -8 0 q 0 130 -8 104 l 103 461 l 346 461 l 237 109 l 517 109 "},"≤":{"x_min":52,"x_max":397,"ha":473,"o":"m 397 205 l 392 205 l 52 439 l 52 488 l 397 725 l 397 631 l 144 464 l 397 299 l 397 205 m 397 98 l 52 98 l 52 179 l 397 179 l 397 98 "},"Õ":{"x_min":-5,"x_max":1171,"ha":1231,"o":"m 1171 605 q 973 168 1171 354 q 543 -11 782 -11 q 266 83 368 -11 q 165 344 165 178 q 204 527 165 430 q 305 696 242 620 l 603 696 q 476 522 526 628 q 426 313 426 413 q 459 174 426 231 q 577 107 500 107 q 807 271 704 107 q 899 555 899 419 q 836 722 899 662 q 664 783 774 783 l -5 783 l 98 954 l 722 954 q 1031 876 912 954 q 1171 605 1171 785 m 979 1192 l 936 1081 q 810 1012 877 1012 q 706 1054 757 1012 q 601 1096 655 1096 q 473 1032 535 1096 l 524 1138 q 648 1205 575 1205 q 765 1159 702 1205 q 856 1122 817 1122 q 979 1192 900 1122 "},"þ":{"x_min":-132.28125,"x_max":888,"ha":889,"o":"m 888 109 q 833 26 881 56 q 730 0 789 0 l 361 0 q 276 86 278 0 q 339 111 307 99 q 406 160 383 131 q 438 259 438 199 q 395 324 438 296 q 299 352 352 353 l 111 -261 l -132 -261 l 202 814 l 445 814 l 332 461 q 553 446 499 461 q 681 291 685 413 q 632 182 678 237 q 525 109 586 125 l 888 109 "},"]":{"x_min":-96,"x_max":550.46875,"ha":511,"o":"m 538 900 l 256 -3 q 65 -140 209 -140 l -96 -140 l -70 -69 l -30 -69 q 31 -46 9 -69 q 62 16 45 -29 l 327 868 q 340 923 340 904 q 307 955 340 955 l 285 955 l 308 1026 l 452 1026 q 550 956 550 1026 q 538 900 550 932 "},"m":{"x_min":-40,"x_max":1329,"ha":1328,"o":"m 1329 109 q 1175 0 1309 0 l 899 0 q 839 26 867 0 q 812 87 812 53 q 814 108 812 98 q 859 255 829 159 l 630 62 q 482 -10 543 -10 q 389 59 389 -10 q 400 108 389 81 l 454 255 l 184 29 q 98 0 149 0 l -40 0 l 103 461 l 345 461 l 273 230 l 488 411 q 669 480 569 480 q 752 418 752 480 q 744 379 752 400 l 695 242 l 899 416 q 1063 480 973 480 q 1149 407 1149 480 q 1138 352 1149 382 l 1051 109 l 1329 109 "},"8":{"x_min":66,"x_max":960,"ha":1004,"o":"m 960 701 q 833 498 960 579 q 910 307 910 411 q 770 63 910 155 q 487 -17 647 -17 q 195 52 302 -17 q 66 306 66 134 q 250 584 66 482 q 213 700 213 637 q 342 904 213 826 q 585 971 452 971 q 837 913 737 971 q 960 701 960 842 m 714 757 q 690 814 714 792 q 632 837 666 837 q 527 754 556 837 l 469 580 l 549 580 q 656 618 623 580 q 706 720 676 641 q 714 757 714 739 m 645 461 l 520 461 q 427 422 463 461 q 380 331 401 392 q 347 229 364 280 q 340 185 340 206 q 371 124 340 148 q 438 103 399 103 q 555 195 525 103 l 645 461 "},"ž":{"x_min":-8,"x_max":719,"ha":718,"o":"m 719 109 q 561 0 687 0 l 119 0 q -8 66 -8 0 q 26 146 -8 110 l 226 352 l -3 352 l 34 461 l 608 461 l 286 109 l 719 109 m 604 713 l 451 541 l 302 541 l 215 713 l 331 713 l 388 631 l 493 713 l 604 713 "},"R":{"x_min":29,"x_max":1194,"ha":1194,"o":"m 1194 109 q 1146 27 1191 57 q 1052 0 1105 0 l 791 0 q 710 28 737 0 q 664 109 691 47 l 530 404 q 646 442 555 409 q 756 487 734 475 q 892 662 892 557 q 721 783 892 783 l 29 783 l 134 954 l 817 954 q 1186 719 1186 954 q 803 372 1186 521 l 925 109 l 1194 109 m 594 696 l 376 0 l 135 0 l 351 696 l 594 696 "},"á":{"x_min":-17,"x_max":876,"ha":875,"o":"m 876 109 q 709 0 843 0 l 453 0 q 343 71 343 0 q 161 -14 269 -14 q 32 34 82 -14 q -17 162 -17 83 q 88 386 -17 304 q 326 461 184 461 l 704 461 l 593 109 l 876 109 m 428 352 l 289 352 l 241 194 q 237 167 237 179 q 352 108 237 108 l 428 352 m 672 753 l 463 543 l 362 543 l 485 753 l 672 753 "},"×":{"x_min":53,"x_max":791,"ha":834,"o":"m 791 757 l 528 439 l 675 95 l 486 95 l 403 289 l 242 95 l 53 95 l 338 440 l 203 757 l 392 757 l 463 591 l 600 757 l 791 757 "},"o":{"x_min":-31,"x_max":1154,"ha":807,"o":"m 1154 461 q 991 352 1126 352 l 566 352 q 603 297 589 337 q 615 228 617 257 q 515 51 605 115 q 291 -11 429 -10 q 45 52 131 -12 q -31 201 -31 109 q -27 238 -31 220 q 74 399 -9 340 q 312 461 163 461 l 1154 461 m 415 352 l 260 352 l 198 178 q 194 153 194 165 q 302 95 194 95 q 325 95 315 95 l 415 352 "},"5":{"x_min":62,"x_max":955.796875,"ha":949,"o":"m 955 954 l 873 761 l 525 761 l 465 597 l 560 597 q 800 529 718 597 q 889 352 887 457 q 792 140 889 239 q 348 -23 633 -23 q 226 -13 287 -23 q 108 42 155 -4 q 62 151 62 88 q 114 266 62 218 q 240 314 167 314 q 369 266 316 314 q 422 151 422 218 q 410 93 422 122 q 548 171 491 103 q 603 313 603 237 q 546 428 603 384 q 359 479 481 479 l 179 479 l 346 954 l 955 954 "},"õ":{"x_min":-31,"x_max":1154,"ha":807,"o":"m 1154 461 q 991 352 1126 352 l 566 352 q 603 297 589 337 q 615 228 617 257 q 515 51 605 115 q 291 -11 429 -10 q 45 52 131 -12 q -31 201 -31 109 q -27 238 -31 220 q 74 399 -9 340 q 312 461 163 461 l 1154 461 m 415 352 l 260 352 l 198 178 q 194 153 194 165 q 302 95 194 95 q 325 95 315 95 l 415 352 m 653 724 l 610 613 q 484 544 551 544 q 380 586 431 544 q 275 628 329 628 q 147 564 209 628 l 198 670 q 322 737 249 737 q 439 691 376 737 q 530 654 491 654 q 653 724 574 654 "},"7":{"x_min":42,"x_max":834,"ha":846,"o":"m 834 954 l 620 461 l 750 461 l 698 352 l 574 352 l 422 0 l 178 0 l 331 352 l 186 352 l 237 461 l 373 461 l 508 761 l 212 761 l 177 690 l 42 690 l 149 954 l 834 954 "},"K":{"x_min":-36,"x_max":1348,"ha":1133,"o":"m 1348 954 l 792 461 l 844 461 q 939 377 939 461 q 926 313 939 349 l 854 109 l 1136 109 q 938 0 1104 0 l 700 0 q 602 72 602 0 q 609 108 602 89 l 700 379 l 346 63 q 180 0 273 0 l 66 0 l 343 783 l -36 783 l 67 954 l 490 954 q 606 866 606 954 q 593 797 606 836 l 427 307 l 1136 954 l 1348 954 "},",":{"x_min":125,"x_max":396,"ha":380,"o":"m 396 170 l 229 -92 l 125 -92 l 218 170 l 396 170 "},"d":{"x_min":-14,"x_max":907,"ha":904,"o":"m 907 109 q 740 0 873 0 l 481 0 q 371 71 369 0 q 171 -17 297 -17 q 38 29 89 -17 q -14 157 -14 76 q 102 388 -14 305 q 353 461 204 461 l 490 461 l 601 819 l 845 819 l 622 109 l 907 109 m 457 352 l 295 352 l 243 206 q 237 170 237 186 q 294 112 237 124 q 380 108 314 108 l 457 352 "},"¨":{"x_min":110,"x_max":586,"ha":695,"o":"m 586 669 q 556 605 586 630 q 487 581 527 581 q 419 607 449 581 q 389 671 389 633 q 419 735 389 709 q 487 761 449 761 q 556 735 527 761 q 586 669 586 708 m 307 669 q 277 605 307 630 q 208 581 247 581 q 139 607 169 581 q 110 671 110 633 q 139 735 110 709 q 208 761 169 761 q 276 735 248 761 q 307 669 307 708 "},"Ô":{"x_min":-5,"x_max":1171,"ha":1231,"o":"m 1171 605 q 973 168 1171 354 q 543 -11 782 -11 q 266 83 368 -11 q 165 344 165 178 q 204 527 165 430 q 305 696 242 620 l 603 696 q 476 522 526 628 q 426 313 426 413 q 459 174 426 231 q 577 107 500 107 q 807 271 704 107 q 899 555 899 419 q 836 722 899 662 q 664 783 774 783 l -5 783 l 98 954 l 722 954 q 1031 876 912 954 q 1171 605 1171 785 m 910 1013 l 793 1013 l 736 1095 l 630 1013 l 521 1013 l 673 1185 l 822 1185 l 910 1013 "},"E":{"x_min":31,"x_max":1114,"ha":1076,"o":"m 1114 791 q 1061 676 1114 723 q 933 629 1009 629 q 807 676 859 629 q 755 790 755 723 q 764 845 755 821 l 684 845 q 618 812 645 845 q 592 741 592 780 q 613 650 592 709 q 635 559 635 591 q 556 483 635 521 q 410 401 443 429 q 331 226 331 335 q 423 121 331 145 q 581 109 468 109 l 1075 109 q 1013 25 1066 56 q 909 0 967 0 l 353 0 q 142 42 228 0 q 31 209 31 98 q 151 429 31 330 q 385 548 250 511 q 346 702 346 633 q 485 901 346 834 q 742 954 593 954 l 949 954 q 1065 905 1017 954 q 1114 791 1114 856 "},"Y":{"x_min":7,"x_max":1217,"ha":1171,"o":"m 1217 954 l 960 128 q 884 34 938 69 q 764 0 830 0 l 217 0 q 284 96 234 61 q 402 131 334 131 l 716 131 l 845 532 l 634 316 q 460 250 569 250 q 353 277 397 250 q 304 366 304 308 q 313 422 304 394 l 438 823 l 364 823 q 367 791 367 804 q 314 676 367 723 q 187 629 261 629 q 59 676 112 629 q 7 791 7 723 q 59 909 7 861 q 174 954 108 954 l 587 954 q 658 929 631 954 q 686 861 686 904 q 676 812 686 837 l 548 402 l 953 911 q 1002 941 968 928 q 1061 954 1035 954 l 1217 954 "},"\"":{"x_min":101,"x_max":654,"ha":653,"o":"m 654 954 l 496 646 l 373 645 l 454 954 l 654 954 m 381 954 l 224 646 l 101 645 l 181 954 l 381 954 "},"‹":{"x_min":65,"x_max":397,"ha":463,"o":"m 397 103 l 231 103 l 65 323 l 230 545 l 396 545 l 233 323 l 397 103 "},"˙":{"x_min":533,"x_max":728,"ha":695,"o":"m 728 639 q 699 570 728 598 q 630 542 671 542 q 561 570 590 542 q 533 639 533 598 q 561 707 533 679 q 630 736 590 736 q 699 707 671 736 q 728 639 728 679 "},"ê":{"x_min":-24,"x_max":852,"ha":848,"o":"m 852 109 q 786 26 837 56 q 683 0 741 0 l 305 0 q -24 198 -24 0 q 88 398 -24 326 q 319 461 185 461 l 417 461 q 569 434 503 461 q 660 327 655 399 q 590 207 663 255 l 366 207 l 439 352 l 295 352 l 239 189 q 235 163 235 175 q 323 109 235 109 l 852 109 m 572 544 l 455 544 l 398 626 l 292 544 l 183 544 l 335 716 l 484 716 l 572 544 "},"Ï":{"x_min":-1,"x_max":1109,"ha":999,"o":"m 1021 954 l 786 201 q 505 0 716 0 l 31 0 q 83 108 61 76 q 177 165 123 165 q 194 163 185 165 l 515 111 l 725 783 l 346 783 q 195 732 262 783 q 122 592 122 676 q 147 526 122 534 q 213 627 159 589 q 328 664 263 664 q 450 620 398 664 q 506 501 506 574 q 441 374 506 419 q 303 335 386 335 q 92 396 176 335 q -1 584 -1 464 q 137 865 -1 764 q 441 954 259 954 l 1021 954 m 1109 1101 q 1079 1037 1109 1062 q 1010 1013 1050 1013 q 942 1039 972 1013 q 912 1103 912 1065 q 942 1167 912 1141 q 1010 1193 972 1193 q 1079 1167 1050 1193 q 1109 1101 1109 1140 m 830 1101 q 800 1037 830 1062 q 731 1013 770 1013 q 662 1039 692 1013 q 633 1103 633 1065 q 662 1167 633 1141 q 731 1193 692 1193 q 799 1167 771 1193 q 830 1101 830 1140 "},"„":{"x_min":87,"x_max":656,"ha":526,"o":"m 656 200 l 497 -92 l 368 -92 l 470 200 l 656 200 m 375 200 l 216 -92 l 87 -92 l 190 200 l 375 200 "},"Â":{"x_min":-49,"x_max":1881,"ha":1531,"o":"m 1881 461 q 1715 352 1846 352 l 1312 352 l 1185 0 l 942 0 l 1069 352 l 861 352 q 193 -60 519 -60 q 33 -24 98 -60 q -49 106 -49 20 q 12 251 -49 180 q 309 418 110 364 q 654 461 465 461 l 786 461 l 1195 954 l 1524 954 l 1349 461 l 1881 461 m 1247 841 l 951 461 l 1102 461 l 1247 841 m 695 352 q 337 278 440 352 q 253 149 253 217 q 314 91 253 91 q 524 185 398 91 q 695 352 635 267 m 1566 1014 l 1449 1014 l 1392 1096 l 1286 1014 l 1177 1014 l 1329 1186 l 1478 1186 l 1566 1014 "},"Í":{"x_min":-1,"x_max":1075,"ha":999,"o":"m 1021 954 l 786 201 q 505 0 716 0 l 31 0 q 83 108 61 76 q 177 165 123 165 q 194 163 185 165 l 515 111 l 725 783 l 346 783 q 195 732 262 783 q 122 592 122 676 q 147 526 122 534 q 213 627 159 589 q 328 664 263 664 q 450 620 398 664 q 506 501 506 574 q 441 374 506 419 q 303 335 386 335 q 92 396 176 335 q -1 584 -1 464 q 137 865 -1 764 q 441 954 259 954 l 1021 954 m 1075 1224 l 866 1014 l 765 1014 l 888 1224 l 1075 1224 "},"´":{"x_min":374,"x_max":684,"ha":695,"o":"m 684 753 l 475 543 l 374 543 l 497 753 l 684 753 "},"ì":{"x_min":-8,"x_max":517,"ha":517,"o":"m 517 109 q 443 20 499 49 q 357 0 403 0 l 89 0 q -8 81 -8 0 q 1 130 -8 104 l 104 461 l 347 461 l 238 109 l 517 109 m 339 543 l 262 543 l 98 753 l 280 753 l 339 543 "},"±":{"x_min":46,"x_max":523.71875,"ha":568,"o":"m 521 441 l 325 441 l 325 269 l 244 269 l 244 441 l 47 441 l 47 518 l 244 518 l 244 697 l 325 697 l 325 518 l 521 518 l 521 441 m 523 129 l 46 129 l 46 212 l 523 212 l 523 129 "},"Ú":{"x_min":-22,"x_max":1129,"ha":1108,"o":"m 1129 804 q 1093 604 1129 726 q 1020 412 1061 499 q 806 92 911 182 q 445 -24 672 -24 q 252 26 325 -24 q 167 199 167 85 q 186 307 167 252 l 334 783 l -22 783 l 76 954 l 630 954 l 436 320 q 418 223 418 268 q 452 141 418 171 q 537 114 484 114 q 863 420 723 114 q 933 629 917 540 q 793 676 852 629 q 730 805 730 727 q 792 932 730 880 q 928 982 851 982 q 1067 934 1010 982 q 1129 804 1129 884 m 937 1224 l 728 1014 l 627 1014 l 750 1224 l 937 1224 "},"|":{"x_min":82,"x_max":170,"ha":248,"o":"m 170 -140 l 82 -140 l 82 1023 l 170 1023 l 170 -140 "},"§":{"x_min":20,"x_max":1112,"ha":1022,"o":"m 1112 791 q 1059 676 1112 724 q 933 629 1007 629 q 805 676 858 629 q 753 791 753 724 q 755 819 753 802 l 728 819 q 626 722 626 819 q 713 506 625 674 q 801 268 801 337 q 768 168 801 218 q 710 109 741 125 l 1025 109 q 826 0 987 0 l 200 0 q 76 44 129 0 q 20 162 20 92 q 72 277 20 230 q 200 325 125 325 q 328 277 275 325 q 381 162 381 230 q 370 107 381 133 q 393 106 381 106 q 487 142 453 106 q 520 234 520 177 q 496 331 520 281 l 395 555 q 357 703 357 638 q 446 887 357 816 q 644 954 529 954 l 933 954 q 1059 906 1007 954 q 1112 791 1112 859 "},"Ý":{"x_min":7,"x_max":1217,"ha":1171,"o":"m 1217 954 l 960 128 q 884 34 938 69 q 764 0 830 0 l 217 0 q 284 96 234 61 q 402 131 334 131 l 716 131 l 845 532 l 634 316 q 460 250 569 250 q 353 277 397 250 q 304 366 304 308 q 313 422 304 394 l 438 823 l 364 823 q 367 791 367 804 q 314 676 367 723 q 187 629 261 629 q 59 676 112 629 q 7 791 7 723 q 59 909 7 861 q 174 954 108 954 l 587 954 q 658 929 631 954 q 686 861 686 904 q 676 812 686 837 l 548 402 l 953 911 q 1002 941 968 928 q 1061 954 1035 954 l 1217 954 m 1132 1222 l 923 1012 l 822 1012 l 945 1222 l 1132 1222 "},"b":{"x_min":-1,"x_max":1228,"ha":813,"o":"m 1228 461 q 1078 352 1183 352 l 712 352 q 511 67 685 158 q 214 0 384 0 l 90 0 q 32 16 57 0 q -1 82 -1 37 q 9 139 -1 107 l 220 818 l 461 818 l 241 110 q 451 226 388 106 q 388 333 388 265 q 429 423 388 386 q 526 461 470 461 l 1228 461 "},"q":{"x_min":-12,"x_max":874,"ha":875,"o":"m 874 109 q 794 20 856 49 q 702 0 751 0 l 558 0 l 471 -278 l 418 -278 q 323 -242 364 -278 q 279 -147 279 -205 q 288 -94 279 -122 l 340 69 q 156 -14 268 -14 q 115 -11 136 -14 q 19 47 54 -3 q -12 164 -12 95 q -1 242 -12 203 q 130 413 29 356 q 328 461 214 461 l 705 461 l 594 109 l 874 109 m 427 352 l 296 352 l 244 206 q 238 174 238 189 q 349 109 238 109 l 427 352 "},"Ω":{"x_min":40,"x_max":676,"ha":714,"o":"m 676 -1 l 414 -1 l 414 331 l 538 331 l 538 977 l 179 977 l 179 331 l 303 331 l 303 -1 l 40 -1 l 40 87 l 224 87 l 224 248 l 159 248 q 105 269 126 248 q 85 323 85 290 l 85 985 q 105 1039 85 1018 q 159 1061 126 1061 l 555 1061 q 610 1039 588 1061 q 632 985 632 1018 l 632 323 q 611 269 632 290 q 557 248 590 248 l 493 248 l 493 87 l 676 87 l 676 -1 "},"Ö":{"x_min":-5,"x_max":1171,"ha":1231,"o":"m 1171 605 q 973 168 1171 354 q 543 -11 782 -11 q 266 83 368 -11 q 165 344 165 178 q 204 527 165 430 q 305 696 242 620 l 603 696 q 476 522 526 628 q 426 313 426 413 q 459 174 426 231 q 577 107 500 107 q 807 271 704 107 q 899 555 899 419 q 836 722 899 662 q 664 783 774 783 l -5 783 l 98 954 l 722 954 q 1031 876 912 954 q 1171 605 1171 785 m 911 1101 q 881 1037 911 1062 q 812 1013 852 1013 q 744 1039 774 1013 q 714 1103 714 1065 q 744 1167 714 1141 q 812 1193 774 1193 q 881 1167 852 1193 q 911 1101 911 1140 m 632 1101 q 602 1037 632 1062 q 533 1013 572 1013 q 464 1039 494 1013 q 435 1103 435 1065 q 464 1167 435 1141 q 533 1193 494 1193 q 601 1167 573 1193 q 632 1101 632 1140 "},"ﬂ":{"x_min":-104,"x_max":1176,"ha":1175,"o":"m 1160 954 l 899 109 l 1176 109 q 1102 20 1158 49 q 1016 0 1063 0 l 749 0 q 652 82 652 0 q 661 130 652 104 l 730 352 l 397 352 q 455 149 460 294 q 271 -155 448 -21 q -32 -273 113 -277 q -82 -251 -60 -272 q -104 -201 -104 -230 q -99 -177 -104 -189 l 74 311 q 12 346 38 320 q -17 412 -17 377 q -2 461 -17 437 l 125 461 l 252 818 l 496 818 l 346 461 l 764 461 l 918 954 l 1160 954 m 255 44 q 273 135 273 96 q 236 219 273 191 q 63 -171 180 89 q 178 -73 118 -142 q 255 44 237 -7 "},"z":{"x_min":-8,"x_max":719,"ha":718,"o":"m 719 109 q 561 0 687 0 l 119 0 q -8 66 -8 0 q 26 146 -8 110 l 226 352 l -3 352 l 34 461 l 608 461 l 286 109 l 719 109 "},"™":{"x_min":119,"x_max":866,"ha":965,"o":"m 866 471 q 807 438 853 438 l 736 438 q 705 456 705 438 q 712 477 705 464 l 751 561 l 637 448 q 600 437 626 437 q 578 454 578 437 q 585 477 578 464 l 644 601 l 503 449 q 476 438 494 438 l 432 438 l 536 661 l 421 661 l 344 499 q 256 441 316 441 l 119 441 q 166 488 142 491 l 258 474 l 350 661 l 228 661 q 178 644 197 661 q 163 611 163 629 q 172 592 163 597 q 227 643 179 643 q 268 626 251 643 q 286 586 286 609 q 268 544 286 561 q 224 528 251 528 q 159 550 187 528 q 126 611 126 569 q 167 691 126 662 q 259 718 204 718 l 591 718 q 616 699 616 718 q 610 679 616 691 l 555 557 l 649 653 q 714 685 680 685 q 735 664 735 685 q 729 642 735 654 l 677 533 l 766 617 q 822 643 793 643 q 841 621 841 643 q 834 596 841 610 l 776 471 l 866 471 "},"ã":{"x_min":-17,"x_max":876,"ha":875,"o":"m 876 109 q 709 0 843 0 l 453 0 q 343 71 343 0 q 161 -14 269 -14 q 32 34 82 -14 q -17 162 -17 83 q 88 386 -17 304 q 326 461 184 461 l 704 461 l 593 109 l 876 109 m 428 352 l 289 352 l 241 194 q 237 167 237 179 q 352 108 237 108 l 428 352 m 708 725 l 665 614 q 539 545 606 545 q 435 587 486 545 q 330 629 384 629 q 202 565 264 629 l 253 671 q 377 738 304 738 q 494 692 431 738 q 585 655 546 655 q 708 725 629 655 "},"æ":{"x_min":-16,"x_max":1239,"ha":1242,"o":"m 1239 109 q 1080 0 1208 0 l 450 0 q 342 71 340 0 q 160 -17 266 -17 q 32 32 81 -17 q -16 161 -16 82 q 91 385 -16 303 q 334 461 188 461 l 820 461 q 1050 322 1050 461 q 968 206 1050 241 l 751 206 l 825 352 l 669 352 l 618 194 q 612 163 612 177 q 708 109 612 109 l 1239 109 m 427 352 l 294 352 l 235 194 q 230 167 230 179 q 351 108 230 108 l 427 352 "},"®":{"x_min":0,"x_max":616,"ha":621,"o":"m 616 551 q 525 349 616 432 q 308 266 435 266 q 90 349 180 266 q 0 549 0 432 q 90 751 0 667 q 308 836 180 836 q 525 752 435 836 q 616 551 616 669 m 556 549 q 483 709 556 643 q 309 776 410 776 q 134 709 207 776 q 62 548 62 642 q 134 388 62 454 q 309 322 207 322 q 483 388 411 322 q 556 549 556 454 m 490 595 q 413 515 479 534 l 466 411 l 329 411 l 288 497 l 269 497 l 239 411 l 114 411 l 215 695 l 370 695 q 491 615 491 695 q 490 595 491 605 m 377 595 q 381 611 381 603 q 353 642 381 642 l 323 642 l 288 547 q 327 548 327 545 q 377 595 359 548 "},"É":{"x_min":31,"x_max":1114,"ha":1076,"o":"m 1114 791 q 1061 676 1114 723 q 933 629 1009 629 q 807 676 859 629 q 755 790 755 723 q 764 845 755 821 l 684 845 q 618 812 645 845 q 592 741 592 780 q 613 650 592 709 q 635 559 635 591 q 556 483 635 521 q 410 401 443 429 q 331 226 331 335 q 423 121 331 145 q 581 109 468 109 l 1075 109 q 1013 25 1066 56 q 909 0 967 0 l 353 0 q 142 42 228 0 q 31 209 31 98 q 151 429 31 330 q 385 548 250 511 q 346 702 346 633 q 485 901 346 834 q 742 954 593 954 l 949 954 q 1065 905 1017 954 q 1114 791 1114 856 m 1028 1222 l 819 1012 l 718 1012 l 841 1222 l 1028 1222 "},"~":{"x_min":84,"x_max":752,"ha":835,"o":"m 752 519 l 720 392 q 522 287 633 287 q 402 324 460 287 q 267 365 336 365 q 84 277 160 365 l 131 405 q 316 501 198 501 q 460 461 386 501 q 579 426 526 426 q 752 519 656 426 "},"³":{"x_min":69,"x_max":703,"ha":737,"o":"m 703 954 l 556 735 q 645 669 608 712 q 689 569 689 620 q 568 378 689 442 q 288 323 464 323 q 153 343 211 323 q 69 436 69 373 q 115 514 69 484 q 205 541 155 541 q 296 514 256 541 q 343 436 343 484 q 337 411 343 424 q 427 444 393 413 q 464 531 464 476 q 400 634 464 591 q 281 677 346 672 l 384 812 l 156 812 l 206 954 l 703 954 "},"¡":{"x_min":-20,"x_max":572,"ha":624,"o":"m -20 0 l 319 655 l 479 655 l 316 0 l -20 0 m 310 857 q 348 942 310 907 q 441 978 386 978 q 533 942 495 978 q 572 857 572 906 q 533 771 572 807 q 439 736 494 736 q 347 771 385 736 q 310 857 310 807 "},"[":{"x_min":-21.890625,"x_max":625,"ha":511,"o":"m 625 1025 l 599 954 l 559 954 q 498 933 519 954 q 466 877 482 919 l 197 16 q 184 -39 184 -20 q 231 -71 184 -71 l 272 -71 l 245 -142 l 84 -142 q -21 -65 -21 -142 q -9 -5 -21 -40 l 268 888 q 461 1025 317 1025 l 625 1025 "},"L":{"x_min":3,"x_max":1489,"ha":1430,"o":"m 1489 804 q 1432 687 1489 734 q 1308 642 1379 642 q 1176 694 1229 642 q 1130 826 1123 746 q 1064 809 1108 828 q 946 486 967 765 q 625 109 923 211 l 1429 109 q 1247 0 1399 0 l 3 0 q 149 165 62 165 q 283 135 187 165 q 422 105 379 105 q 620 316 543 105 l 697 629 q 1290 970 816 970 q 1426 927 1370 970 q 1489 804 1489 881 "}," ":{"x_min":0,"x_max":0,"ha":530},"∑":{"x_min":58,"x_max":440,"ha":496,"o":"m 440 0 l 58 0 l 58 72 l 317 539 l 58 976 l 58 1061 l 436 1061 l 436 978 l 151 978 l 393 579 l 393 498 l 152 83 l 440 83 l 440 0 "},"%":{"x_min":31,"x_max":791,"ha":808,"o":"m 440 839 q 398 746 440 784 q 298 708 356 708 q 197 746 239 708 q 156 837 156 784 q 197 929 156 891 q 298 968 239 968 q 398 929 356 968 q 440 839 440 891 m 791 954 l 190 0 l 31 0 l 625 954 l 791 954 m 705 111 q 663 20 705 58 q 563 -18 621 -18 q 463 20 504 -18 q 422 111 422 58 q 463 203 422 165 q 563 242 504 242 q 663 203 622 242 q 705 111 705 165 "},"P":{"x_min":71,"x_max":1223,"ha":1112,"o":"m 1223 727 q 940 383 1223 526 q 490 235 751 286 l 418 0 l 174 0 l 390 696 l 632 696 l 530 369 q 776 462 669 399 q 931 669 925 551 q 880 768 934 745 q 763 783 847 783 l 71 783 l 176 954 l 874 954 q 1108 916 1027 954 q 1223 727 1223 862 "},"∏":{"x_min":26,"x_max":519,"ha":545,"o":"m 519 978 l 419 978 l 419 0 l 327 0 l 327 978 l 216 978 l 216 0 l 124 0 l 124 978 l 26 978 l 26 1061 l 519 1061 l 519 978 "},"À":{"x_min":-49,"x_max":1881,"ha":1531,"o":"m 1881 461 q 1715 352 1846 352 l 1312 352 l 1185 0 l 942 0 l 1069 352 l 861 352 q 193 -60 519 -60 q 33 -24 98 -60 q -49 106 -49 20 q 12 251 -49 180 q 309 418 110 364 q 654 461 465 461 l 786 461 l 1195 954 l 1524 954 l 1349 461 l 1881 461 m 1247 841 l 951 461 l 1102 461 l 1247 841 m 695 352 q 337 278 440 352 q 253 149 253 217 q 314 91 253 91 q 524 185 398 91 q 695 352 635 267 m 1420 1006 l 1343 1006 l 1179 1216 l 1361 1216 l 1420 1006 "},"_":{"x_min":-375,"x_max":1193,"ha":939,"o":"m 1193 -229 q 1104 -359 1193 -297 q 933 -419 1018 -419 l -375 -419 q -1 -229 -307 -229 l 1193 -229 "},"ñ":{"x_min":-36,"x_max":929,"ha":921,"o":"m 929 109 q 850 20 911 49 q 759 0 808 0 l 488 0 q 395 61 395 0 q 404 108 395 81 l 450 255 l 220 57 q 87 0 139 0 l -36 0 l 107 461 l 349 461 l 277 231 l 486 410 q 670 480 571 482 q 737 411 737 477 q 726 356 737 387 l 648 109 l 929 109 m 714 725 l 671 614 q 545 545 612 545 q 441 587 492 545 q 336 629 390 629 q 208 565 270 629 l 259 671 q 383 738 310 738 q 500 692 437 738 q 591 655 552 655 q 714 725 635 655 "},"+":{"x_min":3,"x_max":857,"ha":834,"o":"m 857 536 l 793 364 l 494 364 l 382 61 l 194 61 l 303 364 l 3 364 l 65 536 l 366 536 l 479 839 l 669 839 l 556 536 l 857 536 "},"‚":{"x_min":13,"x_max":315,"ha":329,"o":"m 315 200 l 128 -92 l 13 -92 l 116 200 l 315 200 "},"½":{"x_min":-87.609375,"x_max":1448,"ha":1513,"o":"m 433 837 l 275 344 l 63 344 l 209 814 l 86 814 l 156 954 l 361 954 q 443 883 443 954 q 433 837 443 861 m 1281 964 l 71 -38 l -87 -38 l 1122 964 l 1281 964 m 1448 462 q 1328 252 1448 342 q 1113 151 1241 187 l 1387 151 l 1335 0 l 797 0 l 833 125 q 1066 248 943 162 q 1220 440 1220 356 q 1153 526 1220 526 q 1138 525 1145 526 q 1140 506 1140 513 q 1093 428 1140 458 q 1003 402 1053 402 q 913 428 953 402 q 868 506 868 459 q 973 606 868 575 q 1138 627 1042 627 q 1448 462 1448 627 "},"Æ":{"x_min":-53,"x_max":2053,"ha":1980,"o":"m 2053 777 q 1991 649 2053 700 q 1854 601 1933 601 q 1717 649 1776 601 q 1656 777 1656 700 q 1661 819 1656 791 q 1566 810 1589 817 q 1502 735 1517 793 q 1498 710 1498 723 q 1519 630 1498 683 q 1541 548 1541 577 q 1470 475 1541 513 q 1338 393 1368 420 q 1267 229 1267 328 q 1356 117 1267 140 q 1517 109 1391 109 l 1980 109 q 1918 25 1971 56 q 1815 0 1872 0 l 1162 0 q 1056 34 1104 0 q 1001 136 1001 73 q 1012 191 1001 162 l 1070 352 l 857 352 q 187 -60 515 -60 q 28 -24 92 -60 q -53 106 -53 19 q 8 251 -53 180 q 305 418 105 364 q 649 461 461 461 l 785 461 l 1184 954 l 1854 954 q 1991 905 1932 954 q 2053 777 2053 853 m 1218 787 l 950 461 l 1106 461 l 1218 787 m 690 352 q 413 318 533 352 q 239 160 239 267 q 259 110 239 130 q 310 91 279 91 q 520 185 393 91 q 690 352 630 267 "},"Ë":{"x_min":31,"x_max":1114,"ha":1076,"o":"m 1114 791 q 1061 676 1114 723 q 933 629 1009 629 q 807 676 859 629 q 755 790 755 723 q 764 845 755 821 l 684 845 q 618 812 645 845 q 592 741 592 780 q 613 650 592 709 q 635 559 635 591 q 556 483 635 521 q 410 401 443 429 q 331 226 331 335 q 423 121 331 145 q 581 109 468 109 l 1075 109 q 1013 25 1066 56 q 909 0 967 0 l 353 0 q 142 42 228 0 q 31 209 31 98 q 151 429 31 330 q 385 548 250 511 q 346 702 346 633 q 485 901 346 834 q 742 954 593 954 l 949 954 q 1065 905 1017 954 q 1114 791 1114 856 m 1048 1102 q 1018 1038 1048 1063 q 949 1014 989 1014 q 881 1040 911 1014 q 851 1104 851 1066 q 881 1168 851 1142 q 949 1194 911 1194 q 1018 1168 989 1194 q 1048 1102 1048 1141 m 769 1102 q 739 1038 769 1063 q 670 1014 709 1014 q 601 1040 631 1014 q 572 1104 572 1066 q 601 1168 572 1142 q 670 1194 631 1194 q 738 1168 710 1194 q 769 1102 769 1141 "},"'":{"x_min":102,"x_max":382,"ha":334,"o":"m 382 954 l 225 646 l 102 645 l 182 954 l 382 954 "},"Š":{"x_min":46,"x_max":1524,"ha":1337,"o":"m 1524 789 q 1470 675 1524 722 q 1342 628 1417 628 q 1214 675 1267 628 q 1162 789 1162 722 q 1167 830 1162 805 q 1128 833 1136 833 q 1026 746 1026 833 q 1086 549 1026 702 q 1147 309 1147 396 q 941 31 1147 124 q 582 -37 788 -37 q 250 15 395 -37 q 46 240 46 88 q 422 461 46 461 l 680 461 l 730 352 l 528 352 q 396 325 452 352 q 323 223 323 291 q 424 104 323 147 q 590 71 501 71 q 778 120 703 71 q 866 283 866 177 q 810 493 866 356 q 755 706 755 630 q 1176 954 755 954 l 1344 954 q 1467 907 1413 954 q 1524 789 1524 857 m 1375 1185 l 1222 1013 l 1073 1013 l 986 1185 l 1102 1185 l 1159 1103 l 1264 1185 l 1375 1185 "},"ª":{"x_min":88,"x_max":878,"ha":875,"o":"m 878 466 q 711 357 845 357 l 602 357 q 492 428 492 357 q 321 343 419 343 q 193 392 242 343 q 144 519 144 441 q 249 744 144 661 q 486 818 345 818 l 847 818 l 735 466 l 878 466 m 579 710 l 443 710 l 395 551 q 391 524 391 536 q 502 465 391 465 l 579 710 m 762 291 l 732 185 l 88 185 l 117 291 l 762 291 "},"Œ":{"x_min":-1,"x_max":1928,"ha":1870,"o":"m 1928 763 q 1862 627 1928 682 q 1717 575 1800 575 q 1575 625 1633 575 q 1516 761 1516 678 q 1531 845 1516 814 l 1464 845 q 1399 811 1426 845 q 1374 741 1374 780 q 1395 650 1374 709 q 1416 559 1416 591 q 1337 483 1416 521 q 1190 401 1223 429 q 1111 226 1111 335 q 1203 121 1111 145 q 1361 109 1248 109 l 1870 109 q 1807 25 1861 56 q 1704 0 1762 0 l 1133 0 q 867 80 955 0 q 543 -11 726 -11 q 263 91 370 -11 q 160 341 160 189 q 178 463 160 401 q 305 696 214 586 l 603 696 q 443 434 492 596 q 425 313 425 373 q 464 167 425 224 q 576 107 505 107 q 784 250 690 107 q 875 538 875 388 q 820 710 875 647 q 636 783 758 783 l -1 783 l 143 954 l 803 954 q 1132 752 1053 954 q 1288 911 1158 857 q 1522 954 1391 954 l 1713 954 q 1864 904 1804 954 q 1928 763 1928 850 "},"˛":{"x_min":37,"x_max":467,"ha":695,"o":"m 467 -169 q 300 -278 444 -278 l 174 -278 q 83 -252 122 -278 q 37 -174 37 -224 q 40 -146 37 -161 q 129 -1 53 -90 l 266 -1 q 199 -58 229 -19 q 169 -127 169 -96 q 232 -169 169 -169 l 467 -169 "},"ð":{"x_min":8,"x_max":909,"ha":856,"o":"m 909 726 l 897 625 l 740 606 l 605 169 q 365 0 547 0 l 158 0 q 47 57 90 0 q 8 181 8 109 q 16 242 8 211 q 139 409 44 351 q 341 461 225 461 l 451 461 l 489 578 l 346 563 l 357 665 l 520 683 l 562 819 l 807 819 l 772 711 l 909 726 m 418 352 l 311 352 q 274 257 292 305 q 249 155 249 186 q 315 108 249 108 l 341 108 l 418 352 "},"T":{"x_min":-1,"x_max":1334,"ha":1030,"o":"m 1334 954 l 1242 783 l 991 783 l 784 201 q 505 0 712 0 l 31 0 q 83 108 60 76 q 175 165 122 165 q 192 163 183 165 l 508 113 l 746 783 l 354 783 q 198 732 267 783 q 122 593 122 676 q 162 527 122 535 q 235 633 181 595 q 347 667 285 667 q 475 616 426 667 q 521 502 521 568 q 467 386 521 433 q 298 334 407 334 q 95 399 180 334 q -1 603 -1 474 q 110 841 -1 741 q 454 954 237 954 l 1334 954 "},"š":{"x_min":-4,"x_max":819,"ha":818,"o":"m 819 109 q 767 31 816 63 q 659 0 717 0 l 144 0 q -4 91 -4 0 q -2 108 -4 99 q 40 171 2 149 q 115 191 73 191 q 313 110 188 188 q 349 200 349 154 q 320 305 349 223 l 243 236 l 109 236 l 288 402 q 271 437 276 423 q 262 494 262 462 l 428 672 q 541 569 541 653 q 512 479 541 520 q 562 346 537 413 q 594 208 594 261 q 547 109 594 150 l 819 109 m 673 897 l 520 725 l 371 725 l 284 897 l 400 897 l 457 815 l 562 897 l 673 897 "},"Þ":{"x_min":18,"x_max":1222,"ha":1112,"o":"m 1222 715 q 945 385 1222 516 q 494 242 810 321 l 419 0 l 175 0 l 418 783 l 18 783 l 141 954 l 471 954 l 520 1111 l 763 1111 l 715 954 q 1041 928 948 954 q 1222 715 1222 878 m 946 641 q 733 783 946 783 l 661 783 l 544 402 q 786 480 687 434 q 946 641 946 553 "},"j":{"x_min":-212,"x_max":585,"ha":582,"o":"m 494 738 q 441 623 494 670 q 315 576 389 576 q 187 623 239 576 q 135 738 135 670 q 187 853 135 806 q 315 901 239 901 q 441 853 389 901 q 494 738 494 806 m 585 109 q 396 0 552 0 l 248 0 l 219 -91 q 109 -237 185 -185 q -64 -288 36 -288 q -173 -232 -131 -288 q -212 -111 -212 -181 q -138 55 -212 -5 q 36 112 -70 112 l 148 461 l 391 461 l 280 109 l 585 109 m 6 0 q -55 -39 -32 -6 q -79 -116 -79 -72 q -52 -185 -79 -164 l 6 0 "},"1":{"x_min":61,"x_max":564.1875,"ha":647,"o":"m 549 768 l 305 0 l 61 0 l 304 782 l 114 782 l 199 954 l 450 954 q 531 924 501 954 q 564 840 564 893 q 549 768 564 807 "},"›":{"x_min":65,"x_max":397,"ha":463,"o":"m 397 323 l 230 103 l 65 103 l 229 323 l 66 545 l 231 545 l 397 323 "},"ı":{"x_min":-8,"x_max":517,"ha":517,"o":"m 517 109 q 443 20 499 49 q 357 0 403 0 l 89 0 q -8 81 -8 0 q 1 130 -8 104 l 104 461 l 347 461 l 238 109 l 517 109 "},"ä":{"x_min":-17,"x_max":876,"ha":875,"o":"m 876 109 q 709 0 843 0 l 453 0 q 343 71 343 0 q 161 -14 269 -14 q 32 34 82 -14 q -17 162 -17 83 q 88 386 -17 304 q 326 461 184 461 l 704 461 l 593 109 l 876 109 m 428 352 l 289 352 l 241 194 q 237 167 237 179 q 352 108 237 108 l 428 352 m 668 633 q 638 569 668 594 q 569 545 609 545 q 501 571 531 545 q 471 635 471 597 q 501 699 471 673 q 569 725 531 725 q 638 699 609 725 q 668 633 668 672 m 389 633 q 359 569 389 594 q 290 545 329 545 q 221 571 251 545 q 192 635 192 597 q 221 699 192 673 q 290 725 251 725 q 358 699 330 725 q 389 633 389 672 "},"<":{"x_min":147.1875,"x_max":875.03125,"ha":834,"o":"m 875 714 l 845 577 l 343 379 l 762 182 l 733 44 l 147 322 l 172 436 l 875 714 "},"£":{"x_min":0,"x_max":1504,"ha":1324,"o":"m 1504 814 q 1451 700 1504 748 q 1323 653 1398 653 q 1196 700 1248 653 q 1143 815 1143 748 q 1144 825 1143 819 q 1145 835 1145 832 q 1123 834 1135 835 q 1111 833 1111 833 q 934 461 977 833 l 1139 461 q 1049 365 1128 389 q 903 351 1004 351 q 624 109 829 178 l 1221 109 q 1039 0 1191 0 l 0 0 q 144 163 56 163 q 272 142 188 163 q 401 121 357 121 q 538 200 482 121 q 608 352 572 248 l 432 352 l 491 461 l 646 461 q 719 666 669 529 q 1216 980 840 980 q 1269 979 1234 980 q 1323 979 1305 979 q 1447 932 1394 979 q 1504 814 1504 884 "},"¹":{"x_min":63.265625,"x_max":443.65625,"ha":496,"o":"m 433 837 l 275 344 l 63 344 l 209 814 l 86 814 l 156 954 l 361 954 q 443 883 443 954 q 433 837 443 861 "},"t":{"x_min":-30,"x_max":603,"ha":603,"o":"m 603 109 q 433 0 571 0 l 87 0 q -12 70 -12 0 q -5 108 -12 88 l 70 352 l -30 352 l 9 461 q 171 539 118 491 q 299 733 231 592 l 431 733 l 347 461 l 511 461 q 352 352 472 352 l 311 352 l 236 109 l 603 109 "},"¬":{"x_min":81,"x_max":558,"ha":639,"o":"m 558 225 l 474 225 l 474 423 l 81 423 l 81 507 l 558 507 l 558 225 "},"ù":{"x_min":-2.921875,"x_max":900,"ha":897,"o":"m 900 109 q 837 23 885 52 q 756 0 799 0 l 473 0 q 373 63 373 0 q 230 0 320 0 l 111 0 q 25 28 56 0 q -2 98 -2 54 q 6 148 -2 122 l 120 461 l 366 461 l 240 109 l 377 109 l 503 461 l 747 461 l 623 109 l 900 109 m 525 543 l 448 543 l 284 753 l 466 753 l 525 543 "},"W":{"x_min":26,"x_max":1572.296875,"ha":1377,"o":"m 1572 954 l 1092 85 q 944 0 1043 0 l 859 0 l 859 602 l 525 83 q 367 0 471 0 l 271 0 l 342 783 l 26 783 l 130 954 l 430 954 q 524 928 485 954 q 578 821 578 894 q 576 798 578 810 l 529 341 l 851 852 q 913 926 886 907 q 1017 954 951 954 l 1084 954 l 1084 352 l 1410 954 l 1572 954 "},"ï":{"x_min":-8,"x_max":517,"ha":517,"o":"m 517 109 q 443 20 499 49 q 357 0 403 0 l 89 0 q -8 81 -8 0 q 1 130 -8 104 l 104 461 l 347 461 l 238 109 l 517 109 m 513 633 q 483 569 513 594 q 414 545 454 545 q 346 571 376 545 q 316 635 316 597 q 346 699 316 673 q 414 725 376 725 q 483 699 454 725 q 513 633 513 672 m 234 633 q 204 569 234 594 q 135 545 174 545 q 66 571 96 545 q 37 635 37 597 q 66 699 37 673 q 135 725 96 725 q 203 699 175 725 q 234 633 234 672 "},">":{"x_min":139.078125,"x_max":866.8125,"ha":834,"o":"m 866 436 l 841 322 l 139 45 l 168 182 l 670 379 l 251 577 l 280 714 l 866 436 "},"v":{"x_min":-23,"x_max":1018,"ha":708,"o":"m 1018 461 q 940 372 1001 401 q 848 352 897 352 l 564 352 l 277 0 l 6 0 l -23 461 l 223 461 l 227 127 l 481 461 l 1018 461 "},"û":{"x_min":-2.921875,"x_max":900,"ha":897,"o":"m 900 109 q 837 23 885 52 q 756 0 799 0 l 473 0 q 373 63 373 0 q 230 0 320 0 l 111 0 q 25 28 56 0 q -2 98 -2 54 q 6 148 -2 122 l 120 461 l 366 461 l 240 109 l 377 109 l 503 461 l 747 461 l 623 109 l 900 109 m 638 544 l 521 544 l 464 626 l 358 544 l 249 544 l 401 716 l 550 716 l 638 544 "},"Ò":{"x_min":-5,"x_max":1171,"ha":1231,"o":"m 1171 605 q 973 168 1171 354 q 543 -11 782 -11 q 266 83 368 -11 q 165 344 165 178 q 204 527 165 430 q 305 696 242 620 l 603 696 q 476 522 526 628 q 426 313 426 413 q 459 174 426 231 q 577 107 500 107 q 807 271 704 107 q 899 555 899 419 q 836 722 899 662 q 664 783 774 783 l -5 783 l 98 954 l 722 954 q 1031 876 912 954 q 1171 605 1171 785 m 758 1008 l 681 1008 l 517 1218 l 699 1218 l 758 1008 "},"&":{"x_min":45,"x_max":1076,"ha":1075,"o":"m 1076 109 q 1024 25 1076 57 q 926 0 981 0 l 327 0 q 137 42 213 0 q 45 202 45 96 q 166 424 45 330 q 411 550 250 490 l 359 702 q 351 752 351 726 q 471 919 351 859 q 685 968 567 968 q 976 775 976 968 q 881 609 976 679 q 670 499 824 565 q 809 109 694 430 l 1076 109 m 784 764 q 757 819 784 799 q 693 840 731 840 q 626 818 659 840 q 587 756 587 793 q 591 731 587 743 q 625 630 597 715 q 784 764 784 701 m 567 109 l 462 407 q 310 218 310 323 q 453 109 310 109 l 567 109 "},"˝":{"x_min":301,"x_max":860,"ha":695,"o":"m 860 763 l 657 549 l 528 549 l 675 763 l 860 763 m 633 763 l 430 549 l 301 549 l 448 763 l 633 763 "},"Ð":{"x_min":5,"x_max":1183,"ha":1117,"o":"m 672 461 l 630 352 l 73 352 l 115 461 l 672 461 m 1183 637 q 1096 374 1183 513 q 765 92 982 192 q 335 0 565 0 l 112 0 l 328 696 l 570 696 l 387 109 q 655 190 523 109 q 850 393 788 272 q 905 570 905 499 q 839 738 905 687 q 660 783 781 783 l 5 783 l 109 954 l 765 954 q 1049 882 936 954 q 1183 637 1183 797 "},"I":{"x_min":-1,"x_max":1021,"ha":999,"o":"m 1021 954 l 786 201 q 505 0 716 0 l 31 0 q 83 108 61 76 q 177 165 123 165 q 194 163 185 165 l 515 111 l 725 783 l 346 783 q 195 732 262 783 q 122 592 122 676 q 147 526 122 534 q 213 627 159 589 q 328 664 263 664 q 450 620 398 664 q 506 501 506 574 q 441 374 506 419 q 303 335 386 335 q 92 396 176 335 q -1 584 -1 464 q 137 865 -1 764 q 441 954 259 954 l 1021 954 "},"ˉ":{"x_min":326.21875,"x_max":786.0625,"ha":695,"o":"m 786 693 l 733 562 l 326 562 l 379 693 l 786 693 "},"G":{"x_min":71,"x_max":1143,"ha":1197,"o":"m 1143 789 q 1086 672 1143 719 q 961 628 1033 628 q 836 672 890 628 q 781 789 781 719 q 787 837 781 811 l 772 837 q 481 689 610 837 q 356 381 356 547 q 459 171 356 243 q 693 109 548 109 l 819 461 l 1073 461 q 905 -19 1017 300 q 648 -171 851 -171 q 594 -170 624 -171 l 656 0 q 272 68 421 0 q 71 369 71 162 q 142 604 71 484 q 429 865 241 771 q 810 954 606 954 l 962 954 q 1086 907 1032 954 q 1143 789 1143 859 "},"`":{"x_min":37,"x_max":278,"ha":695,"o":"m 278 543 l 201 543 l 37 753 l 219 753 l 278 543 "},"·":{"x_min":60,"x_max":281,"ha":335,"o":"m 281 319 q 248 240 281 273 q 171 208 215 208 q 92 240 125 208 q 60 319 60 273 q 92 396 60 363 q 169 429 125 429 q 248 396 215 429 q 281 319 281 363 "},"r":{"x_min":-11,"x_max":794,"ha":794,"o":"m 794 109 q 741 28 794 61 q 645 0 695 0 l 385 0 q 282 85 282 0 q 291 132 282 107 l 359 352 l 222 352 l 121 158 q 53 109 106 109 l -6 109 l 81 352 q 14 394 40 361 q -11 470 -11 427 q 61 590 -11 548 q 204 626 121 626 l 314 626 l 257 461 l 618 461 l 508 109 l 794 109 "},"¿":{"x_min":-4.015625,"x_max":773,"ha":774,"o":"m -4 236 q 128 439 -2 361 q 363 528 204 485 l 419 655 l 661 655 l 613 526 q 532 455 595 476 q 430 429 481 442 q 248 233 248 368 q 300 131 248 155 q 417 117 333 115 q 411 163 411 142 q 463 277 411 229 q 591 325 516 325 q 720 277 667 325 q 773 162 773 229 q 716 44 773 92 q 591 0 663 0 l 339 0 q -4 236 -6 0 m 438 857 q 476 942 438 907 q 570 978 514 978 q 662 942 624 978 q 700 857 700 906 q 661 771 700 807 q 568 736 623 736 q 476 771 514 736 q 438 857 438 807 "},"ý":{"x_min":-5.015625,"x_max":903,"ha":900,"o":"m 903 109 q 745 0 861 0 l 572 0 q 451 -237 514 -160 q 232 -345 363 -345 q 104 -295 149 -345 q 66 -183 66 -251 q 89 -78 66 -129 q 150 0 112 -27 l 99 0 q 24 27 54 0 q -5 96 -5 54 q 1 134 -5 115 l 108 461 l 352 461 l 236 109 l 361 109 l 470 461 l 712 461 l 603 109 l 903 109 m 323 -18 q 247 -68 282 -18 q 213 -169 213 -119 q 251 -241 213 -214 l 323 -18 m 651 752 l 442 542 l 341 542 l 464 752 l 651 752 "},"x":{"x_min":-147,"x_max":697,"ha":676,"o":"m 697 461 l 429 265 l 605 0 l 329 0 l 241 129 l 65 0 l -147 0 l 170 234 l 17 461 l 299 461 l 357 373 l 476 461 l 697 461 "},"è":{"x_min":-24,"x_max":852,"ha":848,"o":"m 852 109 q 786 26 837 56 q 683 0 741 0 l 305 0 q -24 198 -24 0 q 88 398 -24 326 q 319 461 185 461 l 417 461 q 569 434 503 461 q 660 327 655 399 q 590 207 663 255 l 366 207 l 439 352 l 295 352 l 239 189 q 235 163 235 175 q 323 109 235 109 l 852 109 m 469 544 l 392 544 l 228 754 l 410 754 l 469 544 "},"º":{"x_min":74,"x_max":798.359375,"ha":807,"o":"m 797 594 q 695 418 784 481 q 472 355 609 356 q 226 418 312 354 q 151 567 151 475 q 154 605 151 586 q 256 766 172 707 q 492 828 344 828 q 709 777 628 828 q 798 619 798 722 q 797 594 798 607 m 596 719 l 440 719 l 378 545 q 374 519 374 530 q 483 461 374 461 q 506 461 495 461 l 596 719 m 750 291 l 720 185 l 74 185 l 103 291 l 750 291 "},"Ø":{"x_min":-5,"x_max":1171,"ha":1184,"o":"m 1046 1035 l 423 -107 l 291 -107 l 913 1035 l 1046 1035 m 1171 605 q 973 168 1171 354 q 543 -11 782 -11 q 266 83 368 -11 q 165 344 165 178 q 204 527 165 430 q 305 696 242 620 l 603 696 q 476 522 526 628 q 426 313 426 413 q 459 174 426 231 q 577 107 500 107 q 807 271 704 107 q 899 555 899 419 q 836 722 899 662 q 664 783 774 783 l -5 783 l 98 954 l 722 954 q 1031 876 912 954 q 1171 605 1171 785 "},"∞":{"x_min":24,"x_max":837,"ha":860,"o":"m 837 170 q 760 94 837 94 l 590 94 q 497 170 547 94 l 430 273 l 364 169 q 321 112 335 125 q 272 94 301 94 l 100 94 q 24 170 24 94 l 24 515 q 100 592 24 592 l 272 592 q 366 515 317 591 l 431 412 l 498 515 q 590 592 547 592 l 760 592 q 837 515 836 592 l 837 170 m 747 173 l 747 513 l 585 513 l 476 343 l 586 173 l 747 173 m 385 341 l 273 513 l 114 513 l 114 173 l 277 173 l 385 341 "},"μ":{"x_min":74,"x_max":459,"ha":532,"o":"m 459 0 l 369 0 l 369 19 q 244 -1 323 -1 q 163 26 181 -1 l 163 -250 l 74 -250 l 74 660 l 163 660 l 163 171 q 256 77 163 77 q 369 88 320 77 l 369 660 l 459 660 l 459 0 "},"÷":{"x_min":124.609375,"x_max":893.390625,"ha":834,"o":"m 687 716 q 648 624 687 662 q 556 586 610 586 q 463 624 501 586 q 426 716 426 662 q 463 809 426 771 q 556 847 501 847 q 648 809 610 847 q 687 716 687 771 m 893 536 l 831 364 l 124 364 l 187 536 l 893 536 m 604 175 q 565 83 604 122 q 473 45 526 45 q 381 83 420 45 q 343 175 343 122 q 381 267 343 228 q 473 306 420 306 q 565 267 526 306 q 604 175 604 228 "},"h":{"x_min":-40,"x_max":928,"ha":928,"o":"m 928 109 q 852 20 910 49 q 763 0 811 0 l 475 0 q 398 55 398 0 q 408 108 398 77 l 453 253 l 198 41 q 98 0 151 0 l -40 0 l 214 819 l 456 819 l 272 227 l 484 408 q 670 478 566 478 q 739 410 739 478 q 727 353 739 385 l 647 109 l 928 109 "},".":{"x_min":161,"x_max":397,"ha":423,"o":"m 397 88 q 362 11 397 43 q 279 -21 327 -21 q 195 11 229 -21 q 161 88 161 43 q 195 164 161 132 q 279 197 229 197 q 362 164 327 197 q 397 88 397 132 "},";":{"x_min":103,"x_max":446,"ha":528,"o":"m 446 371 q 411 294 446 326 q 326 263 376 263 q 243 294 278 263 q 209 371 209 326 q 243 448 209 416 q 328 480 278 480 q 411 448 376 480 q 446 371 446 416 m 374 170 l 206 -92 l 103 -92 l 196 170 l 374 170 "},"f":{"x_min":-104,"x_max":1024,"ha":713,"o":"m 1024 461 q 849 352 1002 352 l 398 352 q 455 149 460 294 q 271 -155 448 -21 q -32 -273 113 -277 q -82 -251 -60 -272 q -104 -201 -104 -230 q -99 -177 -104 -189 l 72 307 q 14 343 37 316 q -13 412 -13 373 q -2 461 -13 435 l 125 461 l 252 818 l 496 818 l 346 461 l 1024 461 m 255 44 q 273 135 273 96 q 236 219 273 191 q 63 -171 180 89 q 178 -73 118 -142 q 255 44 237 -7 "},"“":{"x_min":26,"x_max":595,"ha":526,"o":"m 595 954 l 491 662 l 307 662 l 465 954 l 595 954 m 314 954 l 210 662 l 26 662 l 184 954 l 314 954 "},"A":{"x_min":-49,"x_max":1881,"ha":1531,"o":"m 1881 461 q 1715 352 1846 352 l 1312 352 l 1185 0 l 942 0 l 1069 352 l 861 352 q 193 -60 519 -60 q 33 -24 98 -60 q -49 106 -49 20 q 12 251 -49 180 q 309 418 110 364 q 654 461 465 461 l 786 461 l 1195 954 l 1524 954 l 1349 461 l 1881 461 m 1247 841 l 951 461 l 1102 461 l 1247 841 m 695 352 q 337 278 440 352 q 253 149 253 217 q 314 91 253 91 q 524 185 398 91 q 695 352 635 267 "},"6":{"x_min":74,"x_max":952,"ha":1004,"o":"m 952 365 q 812 78 952 185 q 500 -20 685 -20 q 207 68 327 -20 q 74 331 74 165 q 247 709 74 531 q 600 954 382 846 l 797 954 q 501 683 597 801 q 355 320 355 503 q 397 177 355 233 q 530 114 445 114 q 705 247 666 114 q 717 278 710 262 q 593 323 645 278 q 538 440 538 370 q 593 558 538 510 q 718 603 646 603 q 887 536 822 603 q 952 365 952 470 "},"‘":{"x_min":3,"x_max":305,"ha":329,"o":"m 305 954 l 201 662 l 3 662 l 189 954 l 305 954 "},"π":{"x_min":26,"x_max":519,"ha":545,"o":"m 519 523 l 419 523 l 419 0 l 327 0 l 327 523 l 216 523 l 216 0 l 124 0 l 124 523 l 26 523 l 26 606 l 519 606 l 519 523 "},"O":{"x_min":-5,"x_max":1171,"ha":1231,"o":"m 1171 605 q 973 168 1171 354 q 543 -11 782 -11 q 266 83 368 -11 q 165 344 165 178 q 204 527 165 430 q 305 696 242 620 l 603 696 q 476 522 526 628 q 426 313 426 413 q 459 174 426 231 q 577 107 500 107 q 807 271 704 107 q 899 555 899 419 q 836 722 899 662 q 664 783 774 783 l -5 783 l 98 954 l 722 954 q 1031 876 912 954 q 1171 605 1171 785 "},"n":{"x_min":-36,"x_max":929,"ha":921,"o":"m 929 109 q 850 20 911 49 q 759 0 808 0 l 488 0 q 395 61 395 0 q 404 108 395 81 l 450 255 l 220 57 q 87 0 139 0 l -36 0 l 107 461 l 349 461 l 277 231 l 486 410 q 670 480 571 482 q 737 411 737 477 q 726 356 737 387 l 648 109 l 929 109 "},"3":{"x_min":87,"x_max":963,"ha":964,"o":"m 963 954 l 729 612 q 848 504 799 575 q 902 354 902 429 q 781 97 902 194 q 512 -10 681 16 q 267 -21 405 -27 q 142 27 195 -17 q 87 146 87 76 q 142 264 87 216 q 265 309 195 309 q 390 264 337 309 q 446 145 446 216 q 433 86 446 113 q 558 151 509 90 q 606 292 606 210 q 520 456 606 389 q 367 520 449 513 l 563 761 l 193 761 l 267 954 l 963 954 "},"9":{"x_min":72,"x_max":850,"ha":914,"o":"m 850 607 q 688 236 850 409 q 345 1 552 92 l 136 1 q 428 304 340 152 q 178 386 277 306 q 72 618 72 472 q 179 868 72 769 q 437 966 283 963 q 850 607 850 974 m 592 723 q 498 858 592 858 q 382 759 429 858 q 342 598 342 677 q 380 485 342 537 q 484 421 422 430 q 556 558 522 464 q 592 723 592 655 "},"l":{"x_min":-5.6875,"x_max":525,"ha":520,"o":"m 525 109 q 447 20 508 49 q 355 0 404 0 l 94 0 q -5 68 -5 0 q 1 108 -5 86 l 222 818 l 459 818 l 237 109 l 525 109 "},"¤":{"x_min":96,"x_max":742,"ha":827,"o":"m 742 745 l 622 624 l 622 356 l 742 236 l 661 156 l 530 288 l 306 288 l 176 156 l 96 236 l 216 356 l 216 625 l 96 745 l 176 826 l 307 694 l 531 694 l 661 826 l 742 745 m 511 388 l 511 594 l 327 594 l 327 388 l 511 388 "},"":{"x_min":-104,"x_max":1178,"ha":1169,"o":"m 1128 727 q 1075 612 1128 660 q 949 565 1023 565 q 821 612 873 565 q 769 727 769 659 q 821 841 769 794 q 949 889 873 889 q 1075 841 1023 889 q 1128 727 1128 793 m 1178 109 q 1104 20 1160 49 q 1018 0 1064 0 l 750 0 q 653 82 653 0 q 662 130 653 104 l 731 352 l 397 352 q 454 149 459 294 q 271 -155 447 -21 q -32 -273 112 -277 q -82 -251 -60 -272 q -104 -201 -104 -230 q -99 -177 -104 -189 l 74 311 q 12 346 38 320 q -17 412 -17 377 q -2 461 -17 437 l 125 461 l 252 818 l 496 818 l 346 461 l 1008 461 l 900 109 l 1178 109 m 254 44 q 272 135 272 96 q 236 219 272 191 q 63 -171 180 89 q 177 -73 117 -142 q 254 44 236 -7 "},"∂":{"x_min":84,"x_max":505,"ha":588,"o":"m 505 582 l 505 75 q 483 21 505 42 q 429 0 462 0 l 159 0 q 105 21 126 0 q 84 75 84 42 l 84 510 q 105 564 84 543 q 159 585 126 585 l 401 585 l 180 1061 l 282 1061 l 505 582 m 410 83 l 410 503 l 178 503 l 178 83 l 410 83 "},"4":{"x_min":40,"x_max":989,"ha":1070,"o":"m 989 461 l 918 268 l 743 268 l 646 0 l 402 0 l 497 268 l 143 268 q 40 345 40 268 q 68 410 40 381 l 290 651 q 203 710 237 668 q 170 805 170 752 q 225 923 170 876 q 350 968 279 968 q 479 917 426 968 q 532 791 532 866 q 475 668 532 729 l 282 461 l 557 461 l 737 954 l 984 954 l 811 461 l 989 461 "},"p":{"x_min":-132.28125,"x_max":888,"ha":889,"o":"m 888 109 q 833 26 881 56 q 730 0 789 0 l 361 0 q 276 86 278 0 q 339 111 307 99 q 406 160 383 131 q 438 259 438 199 q 396 324 438 296 q 303 352 354 353 l 111 -261 l -132 -261 l 143 625 l 387 625 l 331 461 q 550 446 495 461 q 681 291 685 413 q 633 182 678 237 q 525 109 586 125 l 888 109 "},"‡":{"x_min":52,"x_max":890,"ha":786,"o":"m 890 599 q 849 507 890 545 q 750 470 808 470 q 699 478 720 470 q 575 550 642 501 l 488 238 q 536 213 508 228 q 580 299 540 264 q 674 335 620 335 q 773 297 732 335 q 815 207 815 259 q 773 114 815 152 q 674 77 732 77 q 623 86 647 77 q 466 160 557 112 l 351 -244 l 298 -210 l 363 202 l 331 214 q 287 128 328 163 q 192 94 247 94 q 92 131 133 94 q 52 223 52 169 q 93 313 52 276 q 192 351 134 351 q 261 334 223 351 q 375 287 288 322 l 423 589 l 407 607 q 362 521 402 556 q 266 487 322 487 q 168 525 209 487 q 128 617 128 563 q 169 707 128 670 q 267 745 210 745 q 338 728 299 745 q 436 672 400 700 l 480 949 l 702 949 l 596 631 q 592 624 592 628 q 612 606 592 615 q 655 692 615 657 q 751 728 694 728 q 848 690 807 728 q 890 599 890 652 "},"à":{"x_min":-17,"x_max":876,"ha":875,"o":"m 876 109 q 709 0 843 0 l 453 0 q 343 71 343 0 q 161 -14 269 -14 q 32 34 82 -14 q -17 162 -17 83 q 88 386 -17 304 q 326 461 184 461 l 704 461 l 593 109 l 876 109 m 428 352 l 289 352 l 241 194 q 237 167 237 179 q 352 108 237 108 l 428 352 m 527 543 l 450 543 l 286 753 l 468 753 l 527 543 "},"Ü":{"x_min":-22,"x_max":1129,"ha":1108,"o":"m 1129 804 q 1093 604 1129 726 q 1020 412 1061 499 q 806 92 911 182 q 445 -24 672 -24 q 252 26 325 -24 q 167 199 167 85 q 186 307 167 252 l 334 783 l -22 783 l 76 954 l 630 954 l 436 320 q 418 223 418 268 q 452 141 418 171 q 537 114 484 114 q 863 420 723 114 q 933 629 917 540 q 793 676 852 629 q 730 805 730 727 q 792 932 730 880 q 928 982 851 982 q 1067 934 1010 982 q 1129 804 1129 884 m 921 1102 q 891 1038 921 1063 q 822 1014 862 1014 q 754 1040 784 1014 q 724 1104 724 1066 q 754 1168 724 1142 q 822 1194 784 1194 q 891 1168 862 1194 q 921 1102 921 1141 m 642 1102 q 612 1038 642 1063 q 543 1014 582 1014 q 474 1040 504 1014 q 445 1104 445 1066 q 474 1168 445 1142 q 543 1194 504 1194 q 611 1168 583 1194 q 642 1102 642 1141 "},"ó":{"x_min":-31,"x_max":1154,"ha":807,"o":"m 1154 461 q 991 352 1126 352 l 566 352 q 603 297 589 337 q 615 228 617 257 q 515 51 605 115 q 291 -11 429 -10 q 45 52 131 -12 q -31 201 -31 109 q -27 238 -31 220 q 74 399 -9 340 q 312 461 163 461 l 1154 461 m 415 352 l 260 352 l 198 178 q 194 153 194 165 q 302 95 194 95 q 325 95 315 95 l 415 352 m 601 753 l 392 543 l 291 543 l 414 753 l 601 753 "},"√":{"x_min":12,"x_max":647,"ha":660,"o":"m 647 1061 l 349 -1 l 193 -1 l 12 367 l 184 367 l 258 173 l 483 1061 l 647 1061 "}}}
